<?xml version="1.0" standalone="no"?>
 <!DOCTYPE svg PUBLIC "-//W3C//DTD SVG 1.1//EN" 
 "http://www.w3.org/Graphics/SVG/1.1/DTD/svg11.dtd"> 
<svg xmlns="http://www.w3.org/2000/svg" version="1.1" 
    width="20.32cm" height="10.16cm" viewBox="0 0 80000 40000 ">
<title>SVG Picture created as littlecrane.svg date 2014/09/20 16:30:28 </title>
  <desc>Picture generated by Eeschema-SVG </desc>
<g style="fill:#000000; fill-opacity:1;stroke:#000000; stroke-opacity:1;
stroke-linecap:round; stroke-linejoin:round; "
 transform="translate(0 0) scale(1 1)">
</g>
<g style="fill:#000000; fill-opacity:0.0; 
stroke:#000000; stroke-width:0; stroke-opacity:1; 
stroke-linecap:round; stroke-linejoin:round;">
</g>
<g style="fill:#FFFF80; fill-opacity:0.6; 
stroke:#FFFF80; stroke-width:0; stroke-opacity:1; 
stroke-linecap:round; stroke-linejoin:round;">
<rect x="14000" y="12000" width="13000" height="14000" rx="0" />
</g>
<g style="fill:#A00000; fill-opacity:0.0; 
stroke:#A00000; stroke-width:60; stroke-opacity:1; 
stroke-linecap:round; stroke-linejoin:round;">
<rect x="14000" y="12000" width="13000" height="14000" rx="0" />
<path d="M14000 16000
L11000 16000
" />
</g>
<g style="fill:#00A0A0; fill-opacity:0.0; 
stroke:#00A0A0; stroke-width:60; stroke-opacity:1; 
stroke-linecap:round; stroke-linejoin:round;">
<path d="M14780 15730
L14730 15700
L14660 15700
L14590 15730
L14540 15770
L14520 15820
L14500 15920
L14500 15990
L14520 16080
L14540 16130
L14590 16180
L14660 16200
L14710 16200
L14780 16180
L14800 16150
L14800 15990
L14710 15990
" />
<path d="M15020 16200
L15020 15700
L15210 15700
L15260 15730
L15280 15750
L15300 15800
L15300 15870
L15280 15920
L15260 15940
L15210 15960
L15020 15960
" />
<path d="M15520 16200
L15520 15700
" />
<path d="M15850 15700
L15950 15700
L16000 15730
L16040 15770
L16070 15870
L16070 16040
L16040 16130
L16000 16180
L15950 16200
L15850 16200
L15810 16180
L15760 16130
L15740 16040
L15740 15870
L15760 15770
L15810 15730
L15850 15700
" />
<path d="M16490 15870
L16490 16200
" />
<path d="M16370 15680
L16260 16040
L16560 16040
" />
<path d="M17120 15680
L16690 16320
" />
<path d="M17540 15730
L17490 15700
L17420 15700
L17350 15730
L17300 15770
L17280 15820
L17260 15920
L17260 15990
L17280 16080
L17300 16130
L17350 16180
L17420 16200
L17470 16200
L17540 16180
L17560 16150
L17560 15990
L17470 15990
" />
<path d="M17780 16200
L17780 15700
L17970 15700
L18020 15730
L18040 15750
L18060 15800
L18060 15870
L18040 15920
L18020 15940
L17970 15960
L17780 15960
" />
<path d="M18560 16150
L18540 16180
L18470 16200
L18420 16200
L18350 16180
L18300 16130
L18280 16080
L18260 15990
L18260 15920
L18280 15820
L18300 15770
L18350 15730
L18420 15700
L18470 15700
L18540 15730
L18560 15750
" />
<path d="M19020 16200
L18780 16200
L18780 15700
" />
<path d="M19180 16200
L19180 15700
" />
<path d="M19460 16200
L19250 15920
" />
<path d="M19460 15700
L19180 15990
" />
<path d="M19770 15700
L19820 15700
L19870 15730
L19890 15750
L19920 15800
L19940 15890
L19940 16010
L19920 16110
L19890 16150
L19870 16180
L19820 16200
L19770 16200
L19730 16180
L19700 16150
L19680 16110
L19660 16010
L19660 15890
L19680 15800
L19700 15750
L19730 15730
L19770 15700
" />
</g>
<g style="fill:#A00000; fill-opacity:0.0; 
stroke:#A00000; stroke-width:60; stroke-opacity:1; 
stroke-linecap:round; stroke-linejoin:round;">
<path d="M12110 15520
L12460 15520
" />
<path d="M12250 15300
L12110 15950
" />
<path d="M12410 15730
L12060 15730
" />
<path d="M12270 15950
L12410 15300
" />
<path d="M12840 15520
L12840 15850
" />
<path d="M12720 15330
L12610 15690
L12910 15690
" />
<path d="M27000 24000
L30000 24000
" />
</g>
<g style="fill:#00A0A0; fill-opacity:0.0; 
stroke:#00A0A0; stroke-width:60; stroke-opacity:1; 
stroke-linecap:round; stroke-linejoin:round;">
<path d="M22790 23730
L22740 23700
L22670 23700
L22600 23730
L22550 23770
L22530 23820
L22510 23920
L22510 23990
L22530 24080
L22550 24130
L22600 24180
L22670 24200
L22720 24200
L22790 24180
L22810 24150
L22810 23990
L22720 23990
" />
<path d="M23030 24200
L23030 23700
L23220 23700
L23270 23730
L23290 23750
L23310 23800
L23310 23870
L23290 23920
L23270 23940
L23220 23960
L23030 23960
" />
<path d="M23530 24200
L23530 23700
" />
<path d="M23860 23700
L23960 23700
L24010 23730
L24050 23770
L24080 23870
L24080 24040
L24050 24130
L24010 24180
L23960 24200
L23860 24200
L23820 24180
L23770 24130
L23750 24040
L23750 23870
L23770 23770
L23820 23730
L23860 23700
" />
<path d="M24360 23920
L24310 23890
L24290 23870
L24270 23820
L24270 23800
L24290 23750
L24310 23730
L24360 23700
L24460 23700
L24500 23730
L24530 23750
L24550 23800
L24550 23820
L24530 23870
L24500 23890
L24460 23920
L24360 23920
L24310 23940
L24290 23960
L24270 24010
L24270 24110
L24290 24150
L24310 24180
L24360 24200
L24460 24200
L24500 24180
L24530 24150
L24550 24110
L24550 24010
L24530 23960
L24500 23940
L24460 23920
" />
<path d="M25130 23680
L24700 24320
" />
<path d="M25570 24150
L25550 24180
L25480 24200
L25430 24200
L25360 24180
L25310 24130
L25290 24080
L25270 23990
L25270 23920
L25290 23820
L25310 23770
L25360 23730
L25430 23700
L25480 23700
L25550 23730
L25570 23750
" />
<path d="M25790 23940
L25960 23940
" />
<path d="M26030 24200
L25790 24200
L25790 23700
L26030 23700
" />
<path d="M26330 23700
L26380 23700
L26430 23730
L26450 23750
L26480 23800
L26500 23890
L26500 24010
L26480 24110
L26450 24150
L26430 24180
L26380 24200
L26330 24200
L26290 24180
L26260 24150
L26240 24110
L26220 24010
L26220 23890
L26240 23800
L26260 23750
L26290 23730
L26330 23700
" />
</g>
<g style="fill:#A00000; fill-opacity:0.0; 
stroke:#A00000; stroke-width:60; stroke-opacity:1; 
stroke-linecap:round; stroke-linejoin:round;">
<path d="M28190 23800
L28170 23830
L28100 23850
L28050 23850
L27980 23830
L27930 23780
L27910 23730
L27890 23640
L27890 23570
L27910 23470
L27930 23420
L27980 23380
L28050 23350
L28100 23350
L28170 23380
L28190 23400
" />
<path d="M28410 23590
L28580 23590
" />
<path d="M28650 23850
L28410 23850
L28410 23350
L28650 23350
" />
<path d="M28950 23350
L29000 23350
L29050 23380
L29070 23400
L29100 23450
L29120 23540
L29120 23660
L29100 23760
L29070 23800
L29050 23830
L29000 23850
L28950 23850
L28910 23830
L28880 23800
L28860 23760
L28840 23660
L28840 23540
L28860 23450
L28880 23400
L28910 23380
L28950 23350
" />
<path d="M27000 14000
L30000 14000
" />
</g>
<g style="fill:#00A0A0; fill-opacity:0.0; 
stroke:#00A0A0; stroke-width:60; stroke-opacity:1; 
stroke-linecap:round; stroke-linejoin:round;">
<path d="M26050 13700
L25810 13700
L25790 13940
L25810 13920
L25860 13890
L25980 13890
L26020 13920
L26050 13940
L26070 13990
L26070 14110
L26050 14150
L26020 14180
L25980 14200
L25860 14200
L25810 14180
L25790 14150
" />
<path d="M26220 13700
L26380 14200
L26550 13700
" />
</g>
<g style="fill:#A00000; fill-opacity:0.0; 
stroke:#A00000; stroke-width:60; stroke-opacity:1; 
stroke-linecap:round; stroke-linejoin:round;">
<path d="M28190 13350
L27950 13350
L27930 13590
L27950 13570
L28000 13540
L28120 13540
L28160 13570
L28190 13590
L28210 13640
L28210 13760
L28190 13800
L28160 13830
L28120 13850
L28000 13850
L27950 13830
L27930 13800
" />
<path d="M28380 13520
L28500 13850
L28620 13520
" />
<path d="M28900 13350
L28950 13350
L29000 13380
L29020 13400
L29050 13450
L29070 13540
L29070 13660
L29050 13760
L29020 13800
L29000 13830
L28950 13850
L28900 13850
L28860 13830
L28830 13800
L28810 13760
L28790 13660
L28790 13540
L28810 13450
L28830 13400
L28860 13380
L28900 13350
" />
<path d="M27000 13000
L30000 13000
" />
</g>
<g style="fill:#00A0A0; fill-opacity:0.0; 
stroke:#00A0A0; stroke-width:60; stroke-opacity:1; 
stroke-linecap:round; stroke-linejoin:round;">
<path d="M26050 12700
L25810 12700
L25790 12940
L25810 12920
L25860 12890
L25980 12890
L26020 12920
L26050 12940
L26070 12990
L26070 13110
L26050 13150
L26020 13180
L25980 13200
L25860 13200
L25810 13180
L25790 13150
" />
<path d="M26220 12700
L26380 13200
L26550 12700
" />
</g>
<g style="fill:#A00000; fill-opacity:0.0; 
stroke:#A00000; stroke-width:60; stroke-opacity:1; 
stroke-linecap:round; stroke-linejoin:round;">
<path d="M28190 12350
L27950 12350
L27930 12590
L27950 12570
L28000 12540
L28120 12540
L28160 12570
L28190 12590
L28210 12640
L28210 12760
L28190 12800
L28160 12830
L28120 12850
L28000 12850
L27950 12830
L27930 12800
" />
<path d="M28380 12520
L28500 12850
L28620 12520
" />
<path d="M28900 12350
L28950 12350
L29000 12380
L29020 12400
L29050 12450
L29070 12540
L29070 12660
L29050 12760
L29020 12800
L29000 12830
L28950 12850
L28900 12850
L28860 12830
L28830 12800
L28810 12760
L28790 12660
L28790 12540
L28810 12450
L28830 12400
L28860 12380
L28900 12350
" />
<path d="M27000 25000
L30000 25000
" />
</g>
<g style="fill:#00A0A0; fill-opacity:0.0; 
stroke:#00A0A0; stroke-width:60; stroke-opacity:1; 
stroke-linecap:round; stroke-linejoin:round;">
<path d="M22790 24730
L22740 24700
L22670 24700
L22600 24730
L22550 24770
L22530 24820
L22510 24920
L22510 24990
L22530 25080
L22550 25130
L22600 25180
L22670 25200
L22720 25200
L22790 25180
L22810 25150
L22810 24990
L22720 24990
" />
<path d="M23030 25200
L23030 24700
L23220 24700
L23270 24730
L23290 24750
L23310 24800
L23310 24870
L23290 24920
L23270 24940
L23220 24960
L23030 24960
" />
<path d="M23530 25200
L23530 24700
" />
<path d="M23860 24700
L23960 24700
L24010 24730
L24050 24770
L24080 24870
L24080 25040
L24050 25130
L24010 25180
L23960 25200
L23860 25200
L23820 25180
L23770 25130
L23750 25040
L23750 24870
L23770 24770
L23820 24730
L23860 24700
" />
<path d="M24240 24700
L24570 24700
L24360 25200
" />
<path d="M25130 24680
L24700 25320
" />
<path d="M25570 25150
L25550 25180
L25480 25200
L25430 25200
L25360 25180
L25310 25130
L25290 25080
L25270 24990
L25270 24920
L25290 24820
L25310 24770
L25360 24730
L25430 24700
L25480 24700
L25550 24730
L25570 24750
" />
<path d="M25790 24940
L25960 24940
" />
<path d="M26030 25200
L25790 25200
L25790 24700
L26030 24700
" />
<path d="M26500 25200
L26220 25200
" />
<path d="M26360 25200
L26360 24700
L26310 24770
L26260 24820
L26220 24850
" />
</g>
<g style="fill:#A00000; fill-opacity:0.0; 
stroke:#A00000; stroke-width:60; stroke-opacity:1; 
stroke-linecap:round; stroke-linejoin:round;">
<path d="M28190 24800
L28170 24830
L28100 24850
L28050 24850
L27980 24830
L27930 24780
L27910 24730
L27890 24640
L27890 24570
L27910 24470
L27930 24420
L27980 24380
L28050 24350
L28100 24350
L28170 24380
L28190 24400
" />
<path d="M28410 24590
L28580 24590
" />
<path d="M28650 24850
L28410 24850
L28410 24350
L28650 24350
" />
<path d="M29120 24850
L28840 24850
" />
<path d="M28980 24850
L28980 24350
L28930 24420
L28880 24470
L28840 24500
" />
<path d="M14000 20000
L11000 20000
" />
</g>
<g style="fill:#00A0A0; fill-opacity:0.0; 
stroke:#00A0A0; stroke-width:60; stroke-opacity:1; 
stroke-linecap:round; stroke-linejoin:round;">
<path d="M14780 19730
L14730 19700
L14660 19700
L14590 19730
L14540 19770
L14520 19820
L14500 19920
L14500 19990
L14520 20080
L14540 20130
L14590 20180
L14660 20200
L14710 20200
L14780 20180
L14800 20150
L14800 19990
L14710 19990
" />
<path d="M15020 20200
L15020 19700
L15210 19700
L15260 19730
L15280 19750
L15300 19800
L15300 19870
L15280 19920
L15260 19940
L15210 19960
L15020 19960
" />
<path d="M15520 20200
L15520 19700
" />
<path d="M15850 19700
L15950 19700
L16000 19730
L16040 19770
L16070 19870
L16070 20040
L16040 20130
L16000 20180
L15950 20200
L15850 20200
L15810 20180
L15760 20130
L15740 20040
L15740 19870
L15760 19770
L15810 19730
L15850 19700
" />
<path d="M16260 19750
L16280 19730
L16330 19700
L16450 19700
L16490 19730
L16520 19750
L16540 19800
L16540 19850
L16520 19920
L16230 20200
L16540 20200
" />
<path d="M16740 19750
L16760 19730
L16810 19700
L16930 19700
L16970 19730
L17000 19750
L17020 19800
L17020 19850
L17000 19920
L16710 20200
L17020 20200
" />
</g>
<g style="fill:#A00000; fill-opacity:0.0; 
stroke:#A00000; stroke-width:60; stroke-opacity:1; 
stroke-linecap:round; stroke-linejoin:round;">
<path d="M11870 19520
L12220 19520
" />
<path d="M12010 19300
L11870 19950
" />
<path d="M12170 19730
L11820 19730
" />
<path d="M12030 19950
L12170 19300
" />
<path d="M12370 19400
L12390 19380
L12440 19350
L12560 19350
L12600 19380
L12630 19400
L12650 19450
L12650 19500
L12630 19570
L12340 19850
L12650 19850
" />
<path d="M12850 19400
L12870 19380
L12920 19350
L13040 19350
L13080 19380
L13110 19400
L13130 19450
L13130 19500
L13110 19570
L12820 19850
L13130 19850
" />
<path d="M27000 20000
L30000 20000
" />
</g>
<g style="fill:#00A0A0; fill-opacity:0.0; 
stroke:#00A0A0; stroke-width:60; stroke-opacity:1; 
stroke-linecap:round; stroke-linejoin:round;">
<path d="M24260 19730
L24210 19700
L24140 19700
L24070 19730
L24020 19770
L24000 19820
L23980 19920
L23980 19990
L24000 20080
L24020 20130
L24070 20180
L24140 20200
L24190 20200
L24260 20180
L24280 20150
L24280 19990
L24190 19990
" />
<path d="M24500 20200
L24500 19700
L24690 19700
L24740 19730
L24760 19750
L24780 19800
L24780 19870
L24760 19920
L24740 19940
L24690 19960
L24500 19960
" />
<path d="M25000 20200
L25000 19700
" />
<path d="M25330 19700
L25430 19700
L25480 19730
L25520 19770
L25550 19870
L25550 20040
L25520 20130
L25480 20180
L25430 20200
L25330 20200
L25290 20180
L25240 20130
L25220 20040
L25220 19870
L25240 19770
L25290 19730
L25330 19700
" />
<path d="M25740 19750
L25760 19730
L25810 19700
L25930 19700
L25970 19730
L26000 19750
L26020 19800
L26020 19850
L26000 19920
L25710 20200
L26020 20200
" />
<path d="M26190 19700
L26500 19700
L26330 19890
L26410 19890
L26450 19920
L26480 19940
L26500 19990
L26500 20110
L26480 20150
L26450 20180
L26410 20200
L26260 20200
L26220 20180
L26190 20150
" />
</g>
<g style="fill:#A00000; fill-opacity:0.0; 
stroke:#A00000; stroke-width:60; stroke-opacity:1; 
stroke-linecap:round; stroke-linejoin:round;">
<path d="M27870 19520
L28220 19520
" />
<path d="M28010 19300
L27870 19950
" />
<path d="M28170 19730
L27820 19730
" />
<path d="M28030 19950
L28170 19300
" />
<path d="M28370 19400
L28390 19380
L28440 19350
L28560 19350
L28600 19380
L28630 19400
L28650 19450
L28650 19500
L28630 19570
L28340 19850
L28650 19850
" />
<path d="M28820 19350
L29130 19350
L28960 19540
L29040 19540
L29080 19570
L29110 19590
L29130 19640
L29130 19760
L29110 19800
L29080 19830
L29040 19850
L28890 19850
L28850 19830
L28820 19800
" />
<path d="M14000 21000
L11000 21000
" />
</g>
<g style="fill:#00A0A0; fill-opacity:0.0; 
stroke:#00A0A0; stroke-width:60; stroke-opacity:1; 
stroke-linecap:round; stroke-linejoin:round;">
<path d="M14470 20700
L14780 20700
L14610 20890
L14690 20890
L14730 20920
L14760 20940
L14780 20990
L14780 21110
L14760 21150
L14730 21180
L14690 21200
L14540 21200
L14500 21180
L14470 21150
" />
<path d="M15000 21150
L15020 21180
L15000 21200
L14980 21180
L15000 21150
L15000 21200
" />
<path d="M15190 20700
L15500 20700
L15330 20890
L15410 20890
L15450 20920
L15480 20940
L15500 20990
L15500 21110
L15480 21150
L15450 21180
L15410 21200
L15260 21200
L15220 21180
L15190 21150
" />
<path d="M15650 20700
L15810 21200
L15980 20700
" />
</g>
<g style="fill:#A00000; fill-opacity:0.0; 
stroke:#A00000; stroke-width:60; stroke-opacity:1; 
stroke-linecap:round; stroke-linejoin:round;">
<path d="M11900 20350
L12210 20350
L12040 20540
L12120 20540
L12160 20570
L12190 20590
L12210 20640
L12210 20760
L12190 20800
L12160 20830
L12120 20850
L11970 20850
L11930 20830
L11900 20800
" />
<path d="M12380 20520
L12500 20850
L12620 20520
" />
<path d="M12760 20350
L13070 20350
L12900 20540
L12980 20540
L13020 20570
L13050 20590
L13070 20640
L13070 20760
L13050 20800
L13020 20830
L12980 20850
L12830 20850
L12790 20830
L12760 20800
" />
<path d="M14000 13000
L11000 13000
" />
</g>
<g style="fill:#00A0A0; fill-opacity:0.0; 
stroke:#00A0A0; stroke-width:60; stroke-opacity:1; 
stroke-linecap:round; stroke-linejoin:round;">
<path d="M14470 12700
L14780 12700
L14610 12890
L14690 12890
L14730 12920
L14760 12940
L14780 12990
L14780 13110
L14760 13150
L14730 13180
L14690 13200
L14540 13200
L14500 13180
L14470 13150
" />
<path d="M15000 13150
L15020 13180
L15000 13200
L14980 13180
L15000 13150
L15000 13200
" />
<path d="M15190 12700
L15500 12700
L15330 12890
L15410 12890
L15450 12920
L15480 12940
L15500 12990
L15500 13110
L15480 13150
L15450 13180
L15410 13200
L15260 13200
L15220 13180
L15190 13150
" />
<path d="M15650 12700
L15810 13200
L15980 12700
" />
</g>
<g style="fill:#A00000; fill-opacity:0.0; 
stroke:#A00000; stroke-width:60; stroke-opacity:1; 
stroke-linecap:round; stroke-linejoin:round;">
<path d="M11900 12350
L12210 12350
L12040 12540
L12120 12540
L12160 12570
L12190 12590
L12210 12640
L12210 12760
L12190 12800
L12160 12830
L12120 12850
L11970 12850
L11930 12830
L11900 12800
" />
<path d="M12380 12520
L12500 12850
L12620 12520
" />
<path d="M12760 12350
L13070 12350
L12900 12540
L12980 12540
L13020 12570
L13050 12590
L13070 12640
L13070 12760
L13050 12800
L13020 12830
L12980 12850
L12830 12850
L12790 12830
L12760 12800
" />
<path d="M27000 21000
L30000 21000
" />
</g>
<g style="fill:#00A0A0; fill-opacity:0.0; 
stroke:#00A0A0; stroke-width:60; stroke-opacity:1; 
stroke-linecap:round; stroke-linejoin:round;">
<path d="M24260 20730
L24210 20700
L24140 20700
L24070 20730
L24020 20770
L24000 20820
L23980 20920
L23980 20990
L24000 21080
L24020 21130
L24070 21180
L24140 21200
L24190 21200
L24260 21180
L24280 21150
L24280 20990
L24190 20990
" />
<path d="M24500 21200
L24500 20700
L24690 20700
L24740 20730
L24760 20750
L24780 20800
L24780 20870
L24760 20920
L24740 20940
L24690 20960
L24500 20960
" />
<path d="M25000 21200
L25000 20700
" />
<path d="M25330 20700
L25430 20700
L25480 20730
L25520 20770
L25550 20870
L25550 21040
L25520 21130
L25480 21180
L25430 21200
L25330 21200
L25290 21180
L25240 21130
L25220 21040
L25220 20870
L25240 20770
L25290 20730
L25330 20700
" />
<path d="M25740 20750
L25760 20730
L25810 20700
L25930 20700
L25970 20730
L26000 20750
L26020 20800
L26020 20850
L26000 20920
L25710 21200
L26020 21200
" />
<path d="M26450 20870
L26450 21200
" />
<path d="M26330 20680
L26220 21040
L26520 21040
" />
</g>
<g style="fill:#A00000; fill-opacity:0.0; 
stroke:#A00000; stroke-width:60; stroke-opacity:1; 
stroke-linecap:round; stroke-linejoin:round;">
<path d="M27870 20520
L28220 20520
" />
<path d="M28010 20300
L27870 20950
" />
<path d="M28170 20730
L27820 20730
" />
<path d="M28030 20950
L28170 20300
" />
<path d="M28370 20400
L28390 20380
L28440 20350
L28560 20350
L28600 20380
L28630 20400
L28650 20450
L28650 20500
L28630 20570
L28340 20850
L28650 20850
" />
<path d="M29080 20520
L29080 20850
" />
<path d="M28960 20330
L28850 20690
L29150 20690
" />
<path d="M27000 23000
L30000 23000
" />
</g>
<g style="fill:#00A0A0; fill-opacity:0.0; 
stroke:#00A0A0; stroke-width:60; stroke-opacity:1; 
stroke-linecap:round; stroke-linejoin:round;">
<path d="M24260 22730
L24210 22700
L24140 22700
L24070 22730
L24020 22770
L24000 22820
L23980 22920
L23980 22990
L24000 23080
L24020 23130
L24070 23180
L24140 23200
L24190 23200
L24260 23180
L24280 23150
L24280 22990
L24190 22990
" />
<path d="M24500 23200
L24500 22700
L24690 22700
L24740 22730
L24760 22750
L24780 22800
L24780 22870
L24760 22920
L24740 22940
L24690 22960
L24500 22960
" />
<path d="M25000 23200
L25000 22700
" />
<path d="M25330 22700
L25430 22700
L25480 22730
L25520 22770
L25550 22870
L25550 23040
L25520 23130
L25480 23180
L25430 23200
L25330 23200
L25290 23180
L25240 23130
L25220 23040
L25220 22870
L25240 22770
L25290 22730
L25330 22700
" />
<path d="M25740 22750
L25760 22730
L25810 22700
L25930 22700
L25970 22730
L26000 22750
L26020 22800
L26020 22850
L26000 22920
L25710 23200
L26020 23200
" />
<path d="M26480 22700
L26240 22700
L26220 22940
L26240 22920
L26290 22890
L26410 22890
L26450 22920
L26480 22940
L26500 22990
L26500 23110
L26480 23150
L26450 23180
L26410 23200
L26290 23200
L26240 23180
L26220 23150
" />
</g>
<g style="fill:#A00000; fill-opacity:0.0; 
stroke:#A00000; stroke-width:60; stroke-opacity:1; 
stroke-linecap:round; stroke-linejoin:round;">
<path d="M27870 22520
L28220 22520
" />
<path d="M28010 22300
L27870 22950
" />
<path d="M28170 22730
L27820 22730
" />
<path d="M28030 22950
L28170 22300
" />
<path d="M28370 22400
L28390 22380
L28440 22350
L28560 22350
L28600 22380
L28630 22400
L28650 22450
L28650 22500
L28630 22570
L28340 22850
L28650 22850
" />
<path d="M29110 22350
L28870 22350
L28850 22590
L28870 22570
L28920 22540
L29040 22540
L29080 22570
L29110 22590
L29130 22640
L29130 22760
L29110 22800
L29080 22830
L29040 22850
L28920 22850
L28870 22830
L28850 22800
" />
<path d="M14000 18000
L11000 18000
" />
</g>
<g style="fill:#00A0A0; fill-opacity:0.0; 
stroke:#00A0A0; stroke-width:60; stroke-opacity:1; 
stroke-linecap:round; stroke-linejoin:round;">
<path d="M14780 17730
L14730 17700
L14660 17700
L14590 17730
L14540 17770
L14520 17820
L14500 17920
L14500 17990
L14520 18080
L14540 18130
L14590 18180
L14660 18200
L14710 18200
L14780 18180
L14800 18150
L14800 17990
L14710 17990
" />
<path d="M15020 18200
L15020 17700
L15210 17700
L15260 17730
L15280 17750
L15300 17800
L15300 17870
L15280 17920
L15260 17940
L15210 17960
L15020 17960
" />
<path d="M15520 18200
L15520 17700
" />
<path d="M15850 17700
L15950 17700
L16000 17730
L16040 17770
L16070 17870
L16070 18040
L16040 18130
L16000 18180
L15950 18200
L15850 18200
L15810 18180
L15760 18130
L15740 18040
L15740 17870
L15760 17770
L15810 17730
L15850 17700
" />
<path d="M16540 18200
L16260 18200
" />
<path d="M16400 18200
L16400 17700
L16350 17770
L16300 17820
L16260 17850
" />
<path d="M16710 17700
L17040 17700
L16830 18200
" />
</g>
<g style="fill:#A00000; fill-opacity:0.0; 
stroke:#A00000; stroke-width:60; stroke-opacity:1; 
stroke-linecap:round; stroke-linejoin:round;">
<path d="M11870 17520
L12220 17520
" />
<path d="M12010 17300
L11870 17950
" />
<path d="M12170 17730
L11820 17730
" />
<path d="M12030 17950
L12170 17300
" />
<path d="M12650 17850
L12370 17850
" />
<path d="M12510 17850
L12510 17350
L12460 17420
L12410 17470
L12370 17500
" />
<path d="M12820 17350
L13150 17350
L12940 17850
" />
<path d="M27000 18000
L30000 18000
" />
</g>
<g style="fill:#00A0A0; fill-opacity:0.0; 
stroke:#00A0A0; stroke-width:60; stroke-opacity:1; 
stroke-linecap:round; stroke-linejoin:round;">
<path d="M20390 17730
L20340 17700
L20270 17700
L20200 17730
L20150 17770
L20130 17820
L20110 17920
L20110 17990
L20130 18080
L20150 18130
L20200 18180
L20270 18200
L20320 18200
L20390 18180
L20410 18150
L20410 17990
L20320 17990
" />
<path d="M20630 18200
L20630 17700
L20820 17700
L20870 17730
L20890 17750
L20910 17800
L20910 17870
L20890 17920
L20870 17940
L20820 17960
L20630 17960
" />
<path d="M21130 18200
L21130 17700
" />
<path d="M21460 17700
L21560 17700
L21610 17730
L21650 17770
L21680 17870
L21680 18040
L21650 18130
L21610 18180
L21560 18200
L21460 18200
L21420 18180
L21370 18130
L21350 18040
L21350 17870
L21370 17770
L21420 17730
L21460 17700
" />
<path d="M22150 18200
L21870 18200
" />
<path d="M22010 18200
L22010 17700
L21960 17770
L21910 17820
L21870 17850
" />
<path d="M22440 17920
L22390 17890
L22370 17870
L22350 17820
L22350 17800
L22370 17750
L22390 17730
L22440 17700
L22540 17700
L22580 17730
L22610 17750
L22630 17800
L22630 17820
L22610 17870
L22580 17890
L22540 17920
L22440 17920
L22390 17940
L22370 17960
L22350 18010
L22350 18110
L22370 18150
L22390 18180
L22440 18200
L22540 18200
L22580 18180
L22610 18150
L22630 18110
L22630 18010
L22610 17960
L22580 17940
L22540 17920
" />
<path d="M23210 17680
L22780 18320
" />
<path d="M23370 18200
L23370 17700
L23560 17700
L23610 17730
L23630 17750
L23650 17800
L23650 17870
L23630 17920
L23610 17940
L23560 17960
L23370 17960
" />
<path d="M24150 18150
L24130 18180
L24060 18200
L24010 18200
L23940 18180
L23890 18130
L23870 18080
L23850 17990
L23850 17920
L23870 17820
L23890 17770
L23940 17730
L24010 17700
L24060 17700
L24130 17730
L24150 17750
" />
<path d="M24370 18200
L24370 17700
L24540 18060
L24700 17700
L24700 18200
" />
<path d="M24820 18250
L25200 18250
" />
<path d="M25600 18150
L25580 18180
L25510 18200
L25460 18200
L25390 18180
L25340 18130
L25320 18080
L25300 17990
L25300 17920
L25320 17820
L25340 17770
L25390 17730
L25460 17700
L25510 17700
L25580 17730
L25600 17750
" />
<path d="M26060 18200
L25820 18200
L25820 17700
" />
<path d="M26220 18200
L26220 17700
" />
<path d="M26500 18200
L26290 17920
" />
<path d="M26500 17700
L26220 17990
" />
</g>
<g style="fill:#A00000; fill-opacity:0.0; 
stroke:#A00000; stroke-width:60; stroke-opacity:1; 
stroke-linecap:round; stroke-linejoin:round;">
<path d="M27870 17520
L28220 17520
" />
<path d="M28010 17300
L27870 17950
" />
<path d="M28170 17730
L27820 17730
" />
<path d="M28030 17950
L28170 17300
" />
<path d="M28650 17850
L28370 17850
" />
<path d="M28510 17850
L28510 17350
L28460 17420
L28410 17470
L28370 17500
" />
<path d="M28940 17570
L28890 17540
L28870 17520
L28850 17470
L28850 17450
L28870 17400
L28890 17380
L28940 17350
L29040 17350
L29080 17380
L29110 17400
L29130 17450
L29130 17470
L29110 17520
L29080 17540
L29040 17570
L28940 17570
L28890 17590
L28870 17610
L28850 17660
L28850 17760
L28870 17800
L28890 17830
L28940 17850
L29040 17850
L29080 17830
L29110 17800
L29130 17760
L29130 17660
L29110 17610
L29080 17590
L29040 17570
" />
<path d="M14000 14000
L11000 14000
" />
</g>
<g style="fill:#00A0A0; fill-opacity:0.0; 
stroke:#00A0A0; stroke-width:60; stroke-opacity:1; 
stroke-linecap:round; stroke-linejoin:round;">
<path d="M14780 13730
L14730 13700
L14660 13700
L14590 13730
L14540 13770
L14520 13820
L14500 13920
L14500 13990
L14520 14080
L14540 14130
L14590 14180
L14660 14200
L14710 14200
L14780 14180
L14800 14150
L14800 13990
L14710 13990
" />
<path d="M15020 14200
L15020 13700
L15210 13700
L15260 13730
L15280 13750
L15300 13800
L15300 13870
L15280 13920
L15260 13940
L15210 13960
L15020 13960
" />
<path d="M15520 14200
L15520 13700
" />
<path d="M15850 13700
L15950 13700
L16000 13730
L16040 13770
L16070 13870
L16070 14040
L16040 14130
L16000 14180
L15950 14200
L15850 14200
L15810 14180
L15760 14130
L15740 14040
L15740 13870
L15760 13770
L15810 13730
L15850 13700
" />
<path d="M16370 13700
L16420 13700
L16470 13730
L16490 13750
L16520 13800
L16540 13890
L16540 14010
L16520 14110
L16490 14150
L16470 14180
L16420 14200
L16370 14200
L16330 14180
L16300 14150
L16280 14110
L16260 14010
L16260 13890
L16280 13800
L16300 13750
L16330 13730
L16370 13700
" />
<path d="M16830 14200
L16780 14180
L16760 14150
L16740 14110
L16740 13960
L16760 13920
L16780 13890
L16830 13870
L16900 13870
L16950 13890
L16970 13920
L17000 13960
L17000 14110
L16970 14150
L16950 14180
L16900 14200
L16830 14200
" />
<path d="M17210 14200
L17210 13870
" />
<path d="M17210 13960
L17230 13920
L17260 13890
L17300 13870
L17350 13870
" />
<path d="M17500 13750
L17520 13730
L17570 13700
L17690 13700
L17730 13730
L17760 13750
L17780 13800
L17780 13850
L17760 13920
L17470 14200
L17780 14200
" />
<path d="M18360 13680
L17930 14320
" />
<path d="M18500 14180
L18570 14200
L18690 14200
L18730 14180
L18760 14150
L18780 14110
L18780 14060
L18760 14010
L18730 13990
L18690 13960
L18590 13940
L18540 13920
L18520 13890
L18500 13850
L18500 13800
L18520 13750
L18540 13730
L18590 13700
L18710 13700
L18780 13730
" />
<path d="M19000 14200
L19000 13700
L19120 13700
L19190 13730
L19240 13770
L19260 13820
L19280 13920
L19280 13990
L19260 14080
L19240 14130
L19190 14180
L19120 14200
L19000 14200
" />
<path d="M19480 14060
L19710 14060
" />
<path d="M19430 14200
L19590 13700
L19760 14200
" />
</g>
<g style="fill:#A00000; fill-opacity:0.0; 
stroke:#A00000; stroke-width:60; stroke-opacity:1; 
stroke-linecap:round; stroke-linejoin:round;">
<path d="M11900 13830
L11970 13850
L12090 13850
L12130 13830
L12160 13800
L12180 13760
L12180 13710
L12160 13660
L12130 13640
L12090 13610
L11990 13590
L11940 13570
L11920 13540
L11900 13500
L11900 13450
L11920 13400
L11940 13380
L11990 13350
L12110 13350
L12180 13380
" />
<path d="M12400 13850
L12400 13350
L12520 13350
L12590 13380
L12640 13420
L12660 13470
L12680 13570
L12680 13640
L12660 13730
L12640 13780
L12590 13830
L12520 13850
L12400 13850
" />
<path d="M12880 13710
L13110 13710
" />
<path d="M12830 13850
L12990 13350
L13160 13850
" />
<path d="M14000 25000
L11000 25000
" />
</g>
<g style="fill:#00A0A0; fill-opacity:0.0; 
stroke:#00A0A0; stroke-width:60; stroke-opacity:1; 
stroke-linecap:round; stroke-linejoin:round;">
<path d="M14780 24730
L14730 24700
L14660 24700
L14590 24730
L14540 24770
L14520 24820
L14500 24920
L14500 24990
L14520 25080
L14540 25130
L14590 25180
L14660 25200
L14710 25200
L14780 25180
L14800 25150
L14800 24990
L14710 24990
" />
<path d="M15020 25200
L15020 24700
L15300 25200
L15300 24700
" />
<path d="M15540 25200
L15540 24700
L15660 24700
L15730 24730
L15780 24770
L15800 24820
L15820 24920
L15820 24990
L15800 25080
L15780 25130
L15730 25180
L15660 25200
L15540 25200
" />
</g>
<g style="fill:#A00000; fill-opacity:0.0; 
stroke:#A00000; stroke-width:60; stroke-opacity:1; 
stroke-linecap:round; stroke-linejoin:round;">
<path d="M12120 24380
L12070 24350
L12000 24350
L11930 24380
L11880 24420
L11860 24470
L11840 24570
L11840 24640
L11860 24730
L11880 24780
L11930 24830
L12000 24850
L12050 24850
L12120 24830
L12140 24800
L12140 24640
L12050 24640
" />
<path d="M12360 24850
L12360 24350
L12640 24850
L12640 24350
" />
<path d="M12880 24850
L12880 24350
L13000 24350
L13070 24380
L13120 24420
L13140 24470
L13160 24570
L13160 24640
L13140 24730
L13120 24780
L13070 24830
L13000 24850
L12880 24850
" />
<path d="M14000 17000
L11000 17000
" />
</g>
<g style="fill:#00A0A0; fill-opacity:0.0; 
stroke:#00A0A0; stroke-width:60; stroke-opacity:1; 
stroke-linecap:round; stroke-linejoin:round;">
<path d="M14780 16730
L14730 16700
L14660 16700
L14590 16730
L14540 16770
L14520 16820
L14500 16920
L14500 16990
L14520 17080
L14540 17130
L14590 17180
L14660 17200
L14710 17200
L14780 17180
L14800 17150
L14800 16990
L14710 16990
" />
<path d="M15020 17200
L15020 16700
L15300 17200
L15300 16700
" />
<path d="M15540 17200
L15540 16700
L15660 16700
L15730 16730
L15780 16770
L15800 16820
L15820 16920
L15820 16990
L15800 17080
L15780 17130
L15730 17180
L15660 17200
L15540 17200
" />
</g>
<g style="fill:#A00000; fill-opacity:0.0; 
stroke:#A00000; stroke-width:60; stroke-opacity:1; 
stroke-linecap:round; stroke-linejoin:round;">
<path d="M12120 16380
L12070 16350
L12000 16350
L11930 16380
L11880 16420
L11860 16470
L11840 16570
L11840 16640
L11860 16730
L11880 16780
L11930 16830
L12000 16850
L12050 16850
L12120 16830
L12140 16800
L12140 16640
L12050 16640
" />
<path d="M12360 16850
L12360 16350
L12640 16850
L12640 16350
" />
<path d="M12880 16850
L12880 16350
L13000 16350
L13070 16380
L13120 16420
L13140 16470
L13160 16570
L13160 16640
L13140 16730
L13120 16780
L13070 16830
L13000 16850
L12880 16850
" />
<path d="M27000 22000
L30000 22000
" />
</g>
<g style="fill:#00A0A0; fill-opacity:0.0; 
stroke:#00A0A0; stroke-width:60; stroke-opacity:1; 
stroke-linecap:round; stroke-linejoin:round;">
<path d="M25460 21730
L25410 21700
L25340 21700
L25270 21730
L25220 21770
L25200 21820
L25180 21920
L25180 21990
L25200 22080
L25220 22130
L25270 22180
L25340 22200
L25390 22200
L25460 22180
L25480 22150
L25480 21990
L25390 21990
" />
<path d="M25700 22200
L25700 21700
L25980 22200
L25980 21700
" />
<path d="M26220 22200
L26220 21700
L26340 21700
L26410 21730
L26460 21770
L26480 21820
L26500 21920
L26500 21990
L26480 22080
L26460 22130
L26410 22180
L26340 22200
L26220 22200
" />
</g>
<g style="fill:#A00000; fill-opacity:0.0; 
stroke:#A00000; stroke-width:60; stroke-opacity:1; 
stroke-linecap:round; stroke-linejoin:round;">
<path d="M28120 21380
L28070 21350
L28000 21350
L27930 21380
L27880 21420
L27860 21470
L27840 21570
L27840 21640
L27860 21730
L27880 21780
L27930 21830
L28000 21850
L28050 21850
L28120 21830
L28140 21800
L28140 21640
L28050 21640
" />
<path d="M28360 21850
L28360 21350
L28640 21850
L28640 21350
" />
<path d="M28880 21850
L28880 21350
L29000 21350
L29070 21380
L29120 21420
L29140 21470
L29160 21570
L29160 21640
L29140 21730
L29120 21780
L29070 21830
L29000 21850
L28880 21850
" />
<path d="M27000 19000
L30000 19000
" />
</g>
<g style="fill:#00A0A0; fill-opacity:0.0; 
stroke:#00A0A0; stroke-width:60; stroke-opacity:1; 
stroke-linecap:round; stroke-linejoin:round;">
<path d="M25460 18730
L25410 18700
L25340 18700
L25270 18730
L25220 18770
L25200 18820
L25180 18920
L25180 18990
L25200 19080
L25220 19130
L25270 19180
L25340 19200
L25390 19200
L25460 19180
L25480 19150
L25480 18990
L25390 18990
" />
<path d="M25700 19200
L25700 18700
L25980 19200
L25980 18700
" />
<path d="M26220 19200
L26220 18700
L26340 18700
L26410 18730
L26460 18770
L26480 18820
L26500 18920
L26500 18990
L26480 19080
L26460 19130
L26410 19180
L26340 19200
L26220 19200
" />
</g>
<g style="fill:#A00000; fill-opacity:0.0; 
stroke:#A00000; stroke-width:60; stroke-opacity:1; 
stroke-linecap:round; stroke-linejoin:round;">
<path d="M28120 18380
L28070 18350
L28000 18350
L27930 18380
L27880 18420
L27860 18470
L27840 18570
L27840 18640
L27860 18730
L27880 18780
L27930 18830
L28000 18850
L28050 18850
L28120 18830
L28140 18800
L28140 18640
L28050 18640
" />
<path d="M28360 18850
L28360 18350
L28640 18850
L28640 18350
" />
<path d="M28880 18850
L28880 18350
L29000 18350
L29070 18380
L29120 18420
L29140 18470
L29160 18570
L29160 18640
L29140 18730
L29120 18780
L29070 18830
L29000 18850
L28880 18850
" />
<path d="M27000 15000
L30000 15000
" />
</g>
<g style="fill:#00A0A0; fill-opacity:0.0; 
stroke:#00A0A0; stroke-width:60; stroke-opacity:1; 
stroke-linecap:round; stroke-linejoin:round;">
<path d="M25460 14730
L25410 14700
L25340 14700
L25270 14730
L25220 14770
L25200 14820
L25180 14920
L25180 14990
L25200 15080
L25220 15130
L25270 15180
L25340 15200
L25390 15200
L25460 15180
L25480 15150
L25480 14990
L25390 14990
" />
<path d="M25700 15200
L25700 14700
L25980 15200
L25980 14700
" />
<path d="M26220 15200
L26220 14700
L26340 14700
L26410 14730
L26460 14770
L26480 14820
L26500 14920
L26500 14990
L26480 15080
L26460 15130
L26410 15180
L26340 15200
L26220 15200
" />
</g>
<g style="fill:#A00000; fill-opacity:0.0; 
stroke:#A00000; stroke-width:60; stroke-opacity:1; 
stroke-linecap:round; stroke-linejoin:round;">
<path d="M28120 14380
L28070 14350
L28000 14350
L27930 14380
L27880 14420
L27860 14470
L27840 14570
L27840 14640
L27860 14730
L27880 14780
L27930 14830
L28000 14850
L28050 14850
L28120 14830
L28140 14800
L28140 14640
L28050 14640
" />
<path d="M28360 14850
L28360 14350
L28640 14850
L28640 14350
" />
<path d="M28880 14850
L28880 14350
L29000 14350
L29070 14380
L29120 14420
L29140 14470
L29160 14570
L29160 14640
L29140 14730
L29120 14780
L29070 14830
L29000 14850
L28880 14850
" />
<path d="M27000 17000
L30000 17000
" />
</g>
<g style="fill:#00A0A0; fill-opacity:0.0; 
stroke:#00A0A0; stroke-width:60; stroke-opacity:1; 
stroke-linecap:round; stroke-linejoin:round;">
<path d="M22260 16730
L22210 16700
L22140 16700
L22070 16730
L22020 16770
L22000 16820
L21980 16920
L21980 16990
L22000 17080
L22020 17130
L22070 17180
L22140 17200
L22190 17200
L22260 17180
L22280 17150
L22280 16990
L22190 16990
" />
<path d="M22500 17200
L22500 16700
L22690 16700
L22740 16730
L22760 16750
L22780 16800
L22780 16870
L22760 16920
L22740 16940
L22690 16960
L22500 16960
" />
<path d="M23000 17200
L23000 16700
" />
<path d="M23330 16700
L23430 16700
L23480 16730
L23520 16770
L23550 16870
L23550 17040
L23520 17130
L23480 17180
L23430 17200
L23330 17200
L23290 17180
L23240 17130
L23220 17040
L23220 16870
L23240 16770
L23290 16730
L23330 16700
" />
<path d="M24020 17200
L23740 17200
" />
<path d="M23880 17200
L23880 16700
L23830 16770
L23780 16820
L23740 16850
" />
<path d="M24480 16700
L24240 16700
L24220 16940
L24240 16920
L24290 16890
L24410 16890
L24450 16920
L24480 16940
L24500 16990
L24500 17110
L24480 17150
L24450 17180
L24410 17200
L24290 17200
L24240 17180
L24220 17150
" />
<path d="M25080 16680
L24650 17320
" />
<path d="M25520 17200
L25360 16960
" />
<path d="M25240 17200
L25240 16700
L25430 16700
L25480 16730
L25500 16750
L25520 16800
L25520 16870
L25500 16920
L25480 16940
L25430 16960
L25240 16960
" />
<path d="M25690 16700
L26020 17200
" />
<path d="M26020 16700
L25690 17200
" />
<path d="M26220 17200
L26220 16700
L26340 16700
L26410 16730
L26460 16770
L26480 16820
L26500 16920
L26500 16990
L26480 17080
L26460 17130
L26410 17180
L26340 17200
L26220 17200
" />
</g>
<g style="fill:#A00000; fill-opacity:0.0; 
stroke:#A00000; stroke-width:60; stroke-opacity:1; 
stroke-linecap:round; stroke-linejoin:round;">
<path d="M28160 16850
L28000 16610
" />
<path d="M27880 16850
L27880 16350
L28070 16350
L28120 16380
L28140 16400
L28160 16450
L28160 16520
L28140 16570
L28120 16590
L28070 16610
L27880 16610
" />
<path d="M28330 16350
L28660 16850
" />
<path d="M28660 16350
L28330 16850
" />
<path d="M28860 16850
L28860 16350
L28980 16350
L29050 16380
L29100 16420
L29120 16470
L29140 16570
L29140 16640
L29120 16730
L29100 16780
L29050 16830
L28980 16850
L28860 16850
" />
<path d="M27000 16000
L30000 16000
" />
</g>
<g style="fill:#00A0A0; fill-opacity:0.0; 
stroke:#00A0A0; stroke-width:60; stroke-opacity:1; 
stroke-linecap:round; stroke-linejoin:round;">
<path d="M22380 15730
L22330 15700
L22260 15700
L22190 15730
L22140 15770
L22120 15820
L22100 15920
L22100 15990
L22120 16080
L22140 16130
L22190 16180
L22260 16200
L22310 16200
L22380 16180
L22400 16150
L22400 15990
L22310 15990
" />
<path d="M22620 16200
L22620 15700
L22810 15700
L22860 15730
L22880 15750
L22900 15800
L22900 15870
L22880 15920
L22860 15940
L22810 15960
L22620 15960
" />
<path d="M23120 16200
L23120 15700
" />
<path d="M23450 15700
L23550 15700
L23600 15730
L23640 15770
L23670 15870
L23670 16040
L23640 16130
L23600 16180
L23550 16200
L23450 16200
L23410 16180
L23360 16130
L23340 16040
L23340 15870
L23360 15770
L23410 15730
L23450 15700
" />
<path d="M24140 16200
L23860 16200
" />
<path d="M24000 16200
L24000 15700
L23950 15770
L23900 15820
L23860 15850
" />
<path d="M24570 15870
L24570 16200
" />
<path d="M24450 15680
L24340 16040
L24640 16040
" />
<path d="M25200 15680
L24770 16320
" />
<path d="M25290 15700
L25570 15700
" />
<path d="M25430 16200
L25430 15700
" />
<path d="M25690 15700
L26020 16200
" />
<path d="M26020 15700
L25690 16200
" />
<path d="M26220 16200
L26220 15700
L26340 15700
L26410 15730
L26460 15770
L26480 15820
L26500 15920
L26500 15990
L26480 16080
L26460 16130
L26410 16180
L26340 16200
L26220 16200
" />
</g>
<g style="fill:#A00000; fill-opacity:0.0; 
stroke:#A00000; stroke-width:60; stroke-opacity:1; 
stroke-linecap:round; stroke-linejoin:round;">
<path d="M27870 15350
L28150 15350
" />
<path d="M28010 15850
L28010 15350
" />
<path d="M28270 15350
L28600 15850
" />
<path d="M28600 15350
L28270 15850
" />
<path d="M28800 15850
L28800 15350
L28920 15350
L28990 15380
L29040 15420
L29060 15470
L29080 15570
L29080 15640
L29060 15730
L29040 15780
L28990 15830
L28920 15850
L28800 15850
" />
<path d="M14000 15000
L11000 15000
" />
</g>
<g style="fill:#00A0A0; fill-opacity:0.0; 
stroke:#00A0A0; stroke-width:60; stroke-opacity:1; 
stroke-linecap:round; stroke-linejoin:round;">
<path d="M14780 14730
L14730 14700
L14660 14700
L14590 14730
L14540 14770
L14520 14820
L14500 14920
L14500 14990
L14520 15080
L14540 15130
L14590 15180
L14660 15200
L14710 15200
L14780 15180
L14800 15150
L14800 14990
L14710 14990
" />
<path d="M15020 15200
L15020 14700
L15210 14700
L15260 14730
L15280 14750
L15300 14800
L15300 14870
L15280 14920
L15260 14940
L15210 14960
L15020 14960
" />
<path d="M15520 15200
L15520 14700
" />
<path d="M15850 14700
L15950 14700
L16000 14730
L16040 14770
L16070 14870
L16070 15040
L16040 15130
L16000 15180
L15950 15200
L15850 15200
L15810 15180
L15760 15130
L15740 15040
L15740 14870
L15760 14770
L15810 14730
L15850 14700
" />
<path d="M16540 15200
L16260 15200
" />
<path d="M16400 15200
L16400 14700
L16350 14770
L16300 14820
L16260 14850
" />
<path d="M16830 15200
L16780 15180
L16760 15150
L16740 15110
L16740 14960
L16760 14920
L16780 14890
L16830 14870
L16900 14870
L16950 14890
L16970 14920
L17000 14960
L17000 15110
L16970 15150
L16950 15180
L16900 15200
L16830 15200
" />
<path d="M17210 15200
L17210 14870
" />
<path d="M17210 14960
L17230 14920
L17260 14890
L17300 14870
L17350 14870
" />
<path d="M17470 14700
L17780 14700
L17610 14890
L17690 14890
L17730 14920
L17760 14940
L17780 14990
L17780 15110
L17760 15150
L17730 15180
L17690 15200
L17540 15200
L17500 15180
L17470 15150
" />
<path d="M18360 14680
L17930 15320
" />
<path d="M18500 15180
L18570 15200
L18690 15200
L18730 15180
L18760 15150
L18780 15110
L18780 15060
L18760 15010
L18730 14990
L18690 14960
L18590 14940
L18540 14920
L18520 14890
L18500 14850
L18500 14800
L18520 14750
L18540 14730
L18590 14700
L18710 14700
L18780 14730
" />
<path d="M19280 15150
L19260 15180
L19190 15200
L19140 15200
L19070 15180
L19020 15130
L19000 15080
L18980 14990
L18980 14920
L19000 14820
L19020 14770
L19070 14730
L19140 14700
L19190 14700
L19260 14730
L19280 14750
" />
<path d="M19740 15200
L19500 15200
L19500 14700
" />
</g>
<g style="fill:#A00000; fill-opacity:0.0; 
stroke:#A00000; stroke-width:60; stroke-opacity:1; 
stroke-linecap:round; stroke-linejoin:round;">
<path d="M11910 14830
L11980 14850
L12100 14850
L12140 14830
L12170 14800
L12190 14760
L12190 14710
L12170 14660
L12140 14640
L12100 14610
L12000 14590
L11950 14570
L11930 14540
L11910 14500
L11910 14450
L11930 14400
L11950 14380
L12000 14350
L12120 14350
L12190 14380
" />
<path d="M12690 14800
L12670 14830
L12600 14850
L12550 14850
L12480 14830
L12430 14780
L12410 14730
L12390 14640
L12390 14570
L12410 14470
L12430 14420
L12480 14380
L12550 14350
L12600 14350
L12670 14380
L12690 14400
" />
<path d="M13150 14850
L12910 14850
L12910 14350
" />
<path d="M14000 19000
L11000 19000
" />
</g>
<g style="fill:#00A0A0; fill-opacity:0.0; 
stroke:#00A0A0; stroke-width:60; stroke-opacity:1; 
stroke-linecap:round; stroke-linejoin:round;">
<path d="M14780 18730
L14730 18700
L14660 18700
L14590 18730
L14540 18770
L14520 18820
L14500 18920
L14500 18990
L14520 19080
L14540 19130
L14590 19180
L14660 19200
L14710 19200
L14780 19180
L14800 19150
L14800 18990
L14710 18990
" />
<path d="M15020 19200
L15020 18700
L15210 18700
L15260 18730
L15280 18750
L15300 18800
L15300 18870
L15280 18920
L15260 18940
L15210 18960
L15020 18960
" />
<path d="M15520 19200
L15520 18700
" />
<path d="M15850 18700
L15950 18700
L16000 18730
L16040 18770
L16070 18870
L16070 19040
L16040 19130
L16000 19180
L15950 19200
L15850 19200
L15810 19180
L15760 19130
L15740 19040
L15740 18870
L15760 18770
L15810 18730
L15850 18700
" />
<path d="M16260 18750
L16280 18730
L16330 18700
L16450 18700
L16490 18730
L16520 18750
L16540 18800
L16540 18850
L16520 18920
L16230 19200
L16540 19200
" />
<path d="M17020 19200
L16740 19200
" />
<path d="M16880 19200
L16880 18700
L16830 18770
L16780 18820
L16740 18850
" />
<path d="M17310 19200
L17260 19180
L17240 19150
L17220 19110
L17220 18960
L17240 18920
L17260 18890
L17310 18870
L17380 18870
L17430 18890
L17450 18920
L17480 18960
L17480 19110
L17450 19150
L17430 19180
L17380 19200
L17310 19200
" />
<path d="M17690 19200
L17690 18870
" />
<path d="M17690 18960
L17710 18920
L17740 18890
L17780 18870
L17830 18870
" />
<path d="M17980 18750
L18000 18730
L18050 18700
L18170 18700
L18210 18730
L18240 18750
L18260 18800
L18260 18850
L18240 18920
L17950 19200
L18260 19200
" />
<path d="M18430 18700
L18760 18700
L18550 19200
" />
</g>
<g style="fill:#A00000; fill-opacity:0.0; 
stroke:#A00000; stroke-width:60; stroke-opacity:1; 
stroke-linecap:round; stroke-linejoin:round;">
<path d="M11620 18400
L11640 18380
L11690 18350
L11810 18350
L11850 18380
L11880 18400
L11900 18450
L11900 18500
L11880 18570
L11590 18850
L11900 18850
" />
<path d="M12380 18850
L12100 18850
" />
<path d="M12240 18850
L12240 18350
L12190 18420
L12140 18470
L12100 18500
" />
<path d="M12960 18330
L12530 18970
" />
<path d="M13100 18400
L13120 18380
L13170 18350
L13290 18350
L13330 18380
L13360 18400
L13380 18450
L13380 18500
L13360 18570
L13070 18850
L13380 18850
" />
<path d="M14000 22000
L11000 22000
" />
</g>
<g style="fill:#00A0A0; fill-opacity:0.0; 
stroke:#00A0A0; stroke-width:60; stroke-opacity:1; 
stroke-linecap:round; stroke-linejoin:round;">
<path d="M14780 21730
L14730 21700
L14660 21700
L14590 21730
L14540 21770
L14520 21820
L14500 21920
L14500 21990
L14520 22080
L14540 22130
L14590 22180
L14660 22200
L14710 22200
L14780 22180
L14800 22150
L14800 21990
L14710 21990
" />
<path d="M15020 22200
L15020 21700
L15210 21700
L15260 21730
L15280 21750
L15300 21800
L15300 21870
L15280 21920
L15260 21940
L15210 21960
L15020 21960
" />
<path d="M15520 22200
L15520 21700
" />
<path d="M15850 21700
L15950 21700
L16000 21730
L16040 21770
L16070 21870
L16070 22040
L16040 22130
L16000 22180
L15950 22200
L15850 22200
L15810 22180
L15760 22130
L15740 22040
L15740 21870
L15760 21770
L15810 21730
L15850 21700
" />
<path d="M16540 22200
L16260 22200
" />
<path d="M16400 22200
L16400 21700
L16350 21770
L16300 21820
L16260 21850
" />
<path d="M16850 21700
L16900 21700
L16950 21730
L16970 21750
L17000 21800
L17020 21890
L17020 22010
L17000 22110
L16970 22150
L16950 22180
L16900 22200
L16850 22200
L16810 22180
L16780 22150
L16760 22110
L16740 22010
L16740 21890
L16760 21800
L16780 21750
L16810 21730
L16850 21700
" />
<path d="M17600 21680
L17170 22320
" />
<path d="M17760 22200
L17760 21700
L17930 22060
L18090 21700
L18090 22200
" />
<path d="M18420 21700
L18520 21700
L18570 21730
L18610 21770
L18640 21870
L18640 22040
L18610 22130
L18570 22180
L18520 22200
L18420 22200
L18380 22180
L18330 22130
L18310 22040
L18310 21870
L18330 21770
L18380 21730
L18420 21700
" />
<path d="M18830 22180
L18900 22200
L19020 22200
L19060 22180
L19090 22150
L19110 22110
L19110 22060
L19090 22010
L19060 21990
L19020 21960
L18920 21940
L18870 21920
L18850 21890
L18830 21850
L18830 21800
L18850 21750
L18870 21730
L18920 21700
L19040 21700
L19110 21730
" />
<path d="M19330 22200
L19330 21700
" />
</g>
<g style="fill:#A00000; fill-opacity:0.0; 
stroke:#A00000; stroke-width:60; stroke-opacity:1; 
stroke-linecap:round; stroke-linejoin:round;">
<path d="M11720 21850
L11720 21350
L11890 21710
L12050 21350
L12050 21850
" />
<path d="M12380 21350
L12480 21350
L12530 21380
L12570 21420
L12600 21520
L12600 21690
L12570 21780
L12530 21830
L12480 21850
L12380 21850
L12340 21830
L12290 21780
L12270 21690
L12270 21520
L12290 21420
L12340 21380
L12380 21350
" />
<path d="M12790 21830
L12860 21850
L12980 21850
L13020 21830
L13050 21800
L13070 21760
L13070 21710
L13050 21660
L13020 21640
L12980 21610
L12880 21590
L12830 21570
L12810 21540
L12790 21500
L12790 21450
L12810 21400
L12830 21380
L12880 21350
L13000 21350
L13070 21380
" />
<path d="M13290 21850
L13290 21350
" />
<path d="M14000 24000
L11000 24000
" />
</g>
<g style="fill:#00A0A0; fill-opacity:0.0; 
stroke:#00A0A0; stroke-width:60; stroke-opacity:1; 
stroke-linecap:round; stroke-linejoin:round;">
<path d="M14780 23730
L14730 23700
L14660 23700
L14590 23730
L14540 23770
L14520 23820
L14500 23920
L14500 23990
L14520 24080
L14540 24130
L14590 24180
L14660 24200
L14710 24200
L14780 24180
L14800 24150
L14800 23990
L14710 23990
" />
<path d="M15020 24200
L15020 23700
L15210 23700
L15260 23730
L15280 23750
L15300 23800
L15300 23870
L15280 23920
L15260 23940
L15210 23960
L15020 23960
" />
<path d="M15520 24200
L15520 23700
" />
<path d="M15850 23700
L15950 23700
L16000 23730
L16040 23770
L16070 23870
L16070 24040
L16040 24130
L16000 24180
L15950 24200
L15850 24200
L15810 24180
L15760 24130
L15740 24040
L15740 23870
L15760 23770
L15810 23730
L15850 23700
" />
<path d="M16540 24200
L16260 24200
" />
<path d="M16400 24200
L16400 23700
L16350 23770
L16300 23820
L16260 23850
" />
<path d="M17020 24200
L16740 24200
" />
<path d="M16880 24200
L16880 23700
L16830 23770
L16780 23820
L16740 23850
" />
<path d="M17600 23680
L17170 24320
" />
<path d="M17740 24180
L17810 24200
L17930 24200
L17970 24180
L18000 24150
L18020 24110
L18020 24060
L18000 24010
L17970 23990
L17930 23960
L17830 23940
L17780 23920
L17760 23890
L17740 23850
L17740 23800
L17760 23750
L17780 23730
L17830 23700
L17950 23700
L18020 23730
" />
<path d="M18520 24150
L18500 24180
L18430 24200
L18380 24200
L18310 24180
L18260 24130
L18240 24080
L18220 23990
L18220 23920
L18240 23820
L18260 23770
L18310 23730
L18380 23700
L18430 23700
L18500 23730
L18520 23750
" />
<path d="M18980 24200
L18740 24200
L18740 23700
" />
<path d="M19140 24200
L19140 23700
" />
<path d="M19420 24200
L19210 23920
" />
<path d="M19420 23700
L19140 23990
" />
</g>
<g style="fill:#A00000; fill-opacity:0.0; 
stroke:#A00000; stroke-width:60; stroke-opacity:1; 
stroke-linecap:round; stroke-linejoin:round;">
<path d="M11660 23830
L11730 23850
L11850 23850
L11890 23830
L11920 23800
L11940 23760
L11940 23710
L11920 23660
L11890 23640
L11850 23610
L11750 23590
L11700 23570
L11680 23540
L11660 23500
L11660 23450
L11680 23400
L11700 23380
L11750 23350
L11870 23350
L11940 23380
" />
<path d="M12440 23800
L12420 23830
L12350 23850
L12300 23850
L12230 23830
L12180 23780
L12160 23730
L12140 23640
L12140 23570
L12160 23470
L12180 23420
L12230 23380
L12300 23350
L12350 23350
L12420 23380
L12440 23400
" />
<path d="M12900 23850
L12660 23850
L12660 23350
" />
<path d="M13060 23850
L13060 23350
" />
<path d="M13340 23850
L13130 23570
" />
<path d="M13340 23350
L13060 23640
" />
<path d="M14000 23000
L11000 23000
" />
</g>
<g style="fill:#00A0A0; fill-opacity:0.0; 
stroke:#00A0A0; stroke-width:60; stroke-opacity:1; 
stroke-linecap:round; stroke-linejoin:round;">
<path d="M14780 22730
L14730 22700
L14660 22700
L14590 22730
L14540 22770
L14520 22820
L14500 22920
L14500 22990
L14520 23080
L14540 23130
L14590 23180
L14660 23200
L14710 23200
L14780 23180
L14800 23150
L14800 22990
L14710 22990
" />
<path d="M15020 23200
L15020 22700
L15210 22700
L15260 22730
L15280 22750
L15300 22800
L15300 22870
L15280 22920
L15260 22940
L15210 22960
L15020 22960
" />
<path d="M15520 23200
L15520 22700
" />
<path d="M15850 22700
L15950 22700
L16000 22730
L16040 22770
L16070 22870
L16070 23040
L16040 23130
L16000 23180
L15950 23200
L15850 23200
L15810 23180
L15760 23130
L15740 23040
L15740 22870
L15760 22770
L15810 22730
L15850 22700
" />
<path d="M16300 23200
L16400 23200
L16450 23180
L16470 23150
L16520 23080
L16540 22990
L16540 22800
L16520 22750
L16490 22730
L16450 22700
L16350 22700
L16300 22730
L16280 22750
L16260 22800
L16260 22920
L16280 22960
L16300 22990
L16350 23010
L16450 23010
L16490 22990
L16520 22960
L16540 22920
" />
<path d="M17120 22680
L16690 23320
" />
<path d="M17280 23200
L17280 22700
L17450 23060
L17610 22700
L17610 23200
" />
<path d="M17850 23200
L17850 22700
" />
<path d="M18070 23180
L18140 23200
L18260 23200
L18300 23180
L18330 23150
L18350 23110
L18350 23060
L18330 23010
L18300 22990
L18260 22960
L18160 22940
L18110 22920
L18090 22890
L18070 22850
L18070 22800
L18090 22750
L18110 22730
L18160 22700
L18280 22700
L18350 22730
" />
<path d="M18660 22700
L18760 22700
L18810 22730
L18850 22770
L18880 22870
L18880 23040
L18850 23130
L18810 23180
L18760 23200
L18660 23200
L18620 23180
L18570 23130
L18550 23040
L18550 22870
L18570 22770
L18620 22730
L18660 22700
" />
</g>
<g style="fill:#A00000; fill-opacity:0.0; 
stroke:#A00000; stroke-width:60; stroke-opacity:1; 
stroke-linecap:round; stroke-linejoin:round;">
<path d="M11720 22850
L11720 22350
L11890 22710
L12050 22350
L12050 22850
" />
<path d="M12290 22850
L12290 22350
" />
<path d="M12510 22830
L12580 22850
L12700 22850
L12740 22830
L12770 22800
L12790 22760
L12790 22710
L12770 22660
L12740 22640
L12700 22610
L12600 22590
L12550 22570
L12530 22540
L12510 22500
L12510 22450
L12530 22400
L12550 22380
L12600 22350
L12720 22350
L12790 22380
" />
<path d="M13100 22350
L13200 22350
L13250 22380
L13290 22420
L13320 22520
L13320 22690
L13290 22780
L13250 22830
L13200 22850
L13100 22850
L13060 22830
L13010 22780
L12990 22690
L12990 22520
L13010 22420
L13060 22380
L13100 22350
" />
</g>
<g style="fill:#00A0A0; fill-opacity:0.0; 
stroke:#00A0A0; stroke-width:60; stroke-opacity:1; 
stroke-linecap:round; stroke-linejoin:round;">
<path d="M14060 11710
L14060 11110
L14290 11110
L14350 11140
L14380 11170
L14410 11230
L14410 11310
L14380 11370
L14350 11400
L14290 11430
L14060 11430
" />
<path d="M14980 11710
L14630 11710
" />
<path d="M14810 11710
L14810 11110
L14750 11200
L14690 11260
L14630 11280
" />
<path d="M14420 27210
L14420 26610
L14650 26610
L14710 26640
L14740 26670
L14770 26730
L14770 26810
L14740 26870
L14710 26900
L14650 26930
L14420 26930
" />
<path d="M15020 27210
L15020 26610
" />
<path d="M15170 27270
L15630 27270
" />
<path d="M16120 27160
L16090 27180
L16000 27210
L15940 27210
L15860 27180
L15800 27130
L15770 27070
L15740 26960
L15740 26870
L15770 26760
L15800 26700
L15860 26640
L15940 26610
L16000 26610
L16090 26640
L16120 26670
" />
<path d="M16490 26610
L16600 26610
L16660 26640
L16720 26700
L16740 26810
L16740 27010
L16720 27130
L16660 27180
L16600 27210
L16490 27210
L16430 27180
L16370 27130
L16340 27010
L16340 26810
L16370 26700
L16430 26640
L16490 26610
" />
<path d="M17200 26900
L17290 26930
L17320 26960
L17350 27010
L17350 27100
L17320 27160
L17290 27180
L17230 27210
L17000 27210
L17000 26610
L17200 26610
L17260 26640
L17290 26670
L17320 26730
L17320 26780
L17290 26840
L17260 26870
L17200 26900
L17000 26900
" />
<path d="M17800 26900
L17890 26930
L17920 26960
L17950 27010
L17950 27100
L17920 27160
L17890 27180
L17830 27210
L17600 27210
L17600 26610
L17800 26610
L17860 26640
L17890 26670
L17920 26730
L17920 26780
L17890 26840
L17860 26870
L17800 26900
L17600 26900
" />
<path d="M18490 27210
L18200 27210
L18200 26610
" />
<path d="M18690 26900
L18890 26900
" />
<path d="M18980 27210
L18690 27210
L18690 26610
L18980 26610
" />
<path d="M19580 27210
L19380 26930
" />
<path d="M19230 27210
L19230 26610
L19460 26610
L19520 26640
L19550 26670
L19580 26730
L19580 26810
L19550 26870
L19520 26900
L19460 26930
L19230 26930
" />
<path d="M19690 27270
L20150 27270
" />
<path d="M20490 26900
L20580 26930
L20610 26960
L20640 27010
L20640 27100
L20610 27160
L20580 27180
L20520 27210
L20290 27210
L20290 26610
L20490 26610
L20550 26640
L20580 26670
L20610 26730
L20610 26780
L20580 26840
L20550 26870
L20490 26900
L20290 26900
" />
<path d="M21240 27210
L21040 26930
" />
<path d="M20890 27210
L20890 26610
L21120 26610
L21180 26640
L21210 26670
L21240 26730
L21240 26810
L21210 26870
L21180 26900
L21120 26930
L20890 26930
" />
<path d="M21490 26900
L21690 26900
" />
<path d="M21780 27210
L21490 27210
L21490 26610
L21780 26610
" />
<path d="M22000 27040
L22290 27040
" />
<path d="M21950 27210
L22150 26610
L22350 27210
" />
<path d="M22540 27210
L22540 26610
" />
<path d="M22890 27210
L22630 26870
" />
<path d="M22890 26610
L22540 26960
" />
<path d="M23260 26610
L23370 26610
L23430 26640
L23490 26700
L23510 26810
L23510 27010
L23490 27130
L23430 27180
L23370 27210
L23260 27210
L23200 27180
L23140 27130
L23110 27010
L23110 26810
L23140 26700
L23200 26640
L23260 26610
" />
<path d="M23770 26610
L23770 27100
L23800 27160
L23830 27180
L23890 27210
L24000 27210
L24060 27180
L24090 27160
L24120 27100
L24120 26610
" />
<path d="M24320 26610
L24660 26610
" />
<path d="M24490 27210
L24490 26610
" />
</g>
<g style="fill:#00A0A0; fill-opacity:0.0; 
stroke:#00A0A0; stroke-width:0; stroke-opacity:1; 
stroke-linecap:round; stroke-linejoin:round;">
</g>
<g style="fill:#FFFF80; fill-opacity:0.6; 
stroke:#FFFF80; stroke-width:0; stroke-opacity:1; 
stroke-linecap:round; stroke-linejoin:round;">
<rect x="65500" y="9500" width="3500" height="6000" rx="0" />
</g>
<g style="fill:#A00000; fill-opacity:0.0; 
stroke:#A00000; stroke-width:60; stroke-opacity:1; 
stroke-linecap:round; stroke-linejoin:round;">
<rect x="65500" y="9500" width="3500" height="6000" rx="0" />
<path d="M65500 10500
L62500 10500
" />
</g>
<g style="fill:#00A0A0; fill-opacity:0.0; 
stroke:#00A0A0; stroke-width:60; stroke-opacity:1; 
stroke-linecap:round; stroke-linejoin:round;">
<path d="M66020 10510
L66400 10510
" />
<path d="M66210 10700
L66210 10320
" />
<path d="M66900 10700
L66620 10700
" />
<path d="M66760 10700
L66760 10200
L66710 10270
L66660 10320
L66620 10350
" />
<path d="M67100 10250
L67120 10230
L67170 10200
L67290 10200
L67330 10230
L67360 10250
L67380 10300
L67380 10350
L67360 10420
L67070 10700
L67380 10700
" />
<path d="M67530 10200
L67690 10700
L67860 10200
" />
</g>
<g style="fill:#A00000; fill-opacity:0.0; 
stroke:#A00000; stroke-width:60; stroke-opacity:1; 
stroke-linecap:round; stroke-linejoin:round;">
<path d="M65500 14500
L62500 14500
" />
</g>
<g style="fill:#00A0A0; fill-opacity:0.0; 
stroke:#00A0A0; stroke-width:60; stroke-opacity:1; 
stroke-linecap:round; stroke-linejoin:round;">
<path d="M66280 14230
L66230 14200
L66160 14200
L66090 14230
L66040 14270
L66020 14320
L66000 14420
L66000 14490
L66020 14580
L66040 14630
L66090 14680
L66160 14700
L66210 14700
L66280 14680
L66300 14650
L66300 14490
L66210 14490
" />
<path d="M66520 14700
L66520 14200
L66800 14700
L66800 14200
" />
<path d="M67040 14700
L67040 14200
L67160 14200
L67230 14230
L67280 14270
L67300 14320
L67320 14420
L67320 14490
L67300 14580
L67280 14630
L67230 14680
L67160 14700
L67040 14700
" />
</g>
<g style="fill:#A00000; fill-opacity:0.0; 
stroke:#A00000; stroke-width:60; stroke-opacity:1; 
stroke-linecap:round; stroke-linejoin:round;">
</g>
<g style="fill:#00A0A0; fill-opacity:0.0; 
stroke:#00A0A0; stroke-width:60; stroke-opacity:1; 
stroke-linecap:round; stroke-linejoin:round;">
<path d="M68050 9210
L68050 8610
L68280 8610
L68340 8640
L68370 8670
L68400 8730
L68400 8810
L68370 8870
L68340 8900
L68280 8930
L68050 8930
" />
<path d="M68620 8670
L68650 8640
L68710 8610
L68850 8610
L68910 8640
L68940 8670
L68970 8730
L68970 8780
L68940 8870
L68600 9210
L68970 9210
" />
<path d="M64200 16710
L63850 16710
" />
<path d="M64030 16710
L64030 16110
L63970 16200
L63910 16260
L63850 16280
" />
<path d="M64420 16170
L64450 16140
L64510 16110
L64650 16110
L64710 16140
L64740 16170
L64770 16230
L64770 16280
L64740 16370
L64400 16710
L64770 16710
" />
<path d="M64940 16110
L65140 16710
L65340 16110
" />
<path d="M65390 16770
L65850 16770
" />
<path d="M65960 16680
L66050 16710
L66190 16710
L66250 16680
L66280 16660
L66310 16600
L66310 16540
L66280 16480
L66250 16460
L66190 16430
L66080 16400
L66020 16370
L65990 16340
L65960 16280
L65960 16230
L65990 16170
L66020 16140
L66080 16110
L66220 16110
L66310 16140
" />
<path d="M66560 16110
L66560 16600
L66590 16660
L66620 16680
L66680 16710
L66790 16710
L66850 16680
L66880 16660
L66910 16600
L66910 16110
" />
<path d="M67190 16710
L67190 16110
L67420 16110
L67480 16140
L67510 16170
L67540 16230
L67540 16310
L67510 16370
L67480 16400
L67420 16430
L67190 16430
" />
<path d="M67790 16710
L67790 16110
L68020 16110
L68080 16140
L68110 16170
L68140 16230
L68140 16310
L68110 16370
L68080 16400
L68020 16430
L67790 16430
" />
<path d="M68680 16710
L68390 16710
L68390 16110
" />
<path d="M69000 16430
L69000 16710
" />
<path d="M68800 16110
L69000 16430
L69200 16110
" />
</g>
<g style="fill:#00A0A0; fill-opacity:0.0; 
stroke:#00A0A0; stroke-width:0; stroke-opacity:1; 
stroke-linecap:round; stroke-linejoin:round;">
</g>
<g style="fill:#FFFF80; fill-opacity:0.6; 
stroke:#FFFF80; stroke-width:0; stroke-opacity:1; 
stroke-linecap:round; stroke-linejoin:round;">
<rect x="65000" y="21000" width="4000" height="6000" rx="0" />
</g>
<g style="fill:#A00000; fill-opacity:0.0; 
stroke:#A00000; stroke-width:60; stroke-opacity:1; 
stroke-linecap:round; stroke-linejoin:round;">
<rect x="65000" y="21000" width="4000" height="6000" rx="0" />
<path d="M65000 22000
L62000 22000
" />
</g>
<g style="fill:#00A0A0; fill-opacity:0.0; 
stroke:#00A0A0; stroke-width:60; stroke-opacity:1; 
stroke-linecap:round; stroke-linejoin:round;">
<path d="M65500 22060
L65730 22060
" />
<path d="M65450 22200
L65610 21700
L65780 22200
" />
</g>
<g style="fill:#A00000; fill-opacity:0.0; 
stroke:#A00000; stroke-width:60; stroke-opacity:1; 
stroke-linecap:round; stroke-linejoin:round;">
<path d="M63180 21850
L63020 21610
" />
<path d="M62900 21850
L62900 21350
L63090 21350
L63140 21380
L63160 21400
L63180 21450
L63180 21520
L63160 21570
L63140 21590
L63090 21610
L62900 21610
" />
<path d="M63400 21590
L63570 21590
" />
<path d="M63640 21850
L63400 21850
L63400 21350
L63640 21350
" />
<path d="M63850 21850
L63850 21350
L63970 21350
L64040 21380
L64090 21420
L64110 21470
L64130 21570
L64130 21640
L64110 21730
L64090 21780
L64040 21830
L63970 21850
L63850 21850
" />
<path d="M65000 26000
L62000 26000
" />
</g>
<g style="fill:#00A0A0; fill-opacity:0.0; 
stroke:#00A0A0; stroke-width:60; stroke-opacity:1; 
stroke-linecap:round; stroke-linejoin:round;">
<path d="M65690 25940
L65760 25960
L65780 25990
L65800 26040
L65800 26110
L65780 26150
L65760 26180
L65710 26200
L65520 26200
L65520 25700
L65690 25700
L65730 25730
L65760 25750
L65780 25800
L65780 25850
L65760 25890
L65730 25920
L65690 25940
L65520 25940
" />
<path d="M65400 25610
L65900 25610
" />
</g>
<g style="fill:#A00000; fill-opacity:0.0; 
stroke:#A00000; stroke-width:60; stroke-opacity:1; 
stroke-linecap:round; stroke-linejoin:round;">
<path d="M63090 25590
L63160 25610
L63180 25640
L63200 25690
L63200 25760
L63180 25800
L63160 25830
L63110 25850
L62920 25850
L62920 25350
L63090 25350
L63130 25380
L63160 25400
L63180 25450
L63180 25500
L63160 25540
L63130 25570
L63090 25590
L62920 25590
" />
<path d="M63660 25850
L63420 25850
L63420 25350
" />
<path d="M63820 25850
L63820 25350
" />
<path d="M64100 25850
L63890 25570
" />
<path d="M64100 25350
L63820 25640
" />
<path d="M65000 25000
L62000 25000
" />
</g>
<g style="fill:#00A0A0; fill-opacity:0.0; 
stroke:#00A0A0; stroke-width:60; stroke-opacity:1; 
stroke-linecap:round; stroke-linejoin:round;">
<path d="M65690 24940
L65760 24960
L65780 24990
L65800 25040
L65800 25110
L65780 25150
L65760 25180
L65710 25200
L65520 25200
L65520 24700
L65690 24700
L65730 24730
L65760 24750
L65780 24800
L65780 24850
L65760 24890
L65730 24920
L65690 24940
L65520 24940
" />
</g>
<g style="fill:#A00000; fill-opacity:0.0; 
stroke:#A00000; stroke-width:60; stroke-opacity:1; 
stroke-linecap:round; stroke-linejoin:round;">
<path d="M63120 24380
L63070 24350
L63000 24350
L62930 24380
L62880 24420
L62860 24470
L62840 24570
L62840 24640
L62860 24730
L62880 24780
L62930 24830
L63000 24850
L63050 24850
L63120 24830
L63140 24800
L63140 24640
L63050 24640
" />
<path d="M63640 24850
L63480 24610
" />
<path d="M63360 24850
L63360 24350
L63550 24350
L63600 24380
L63620 24400
L63640 24450
L63640 24520
L63620 24570
L63600 24590
L63550 24610
L63360 24610
" />
<path d="M63860 24850
L63860 24350
L64140 24850
L64140 24350
" />
<path d="M65000 23000
L62000 23000
" />
</g>
<g style="fill:#00A0A0; fill-opacity:0.0; 
stroke:#00A0A0; stroke-width:60; stroke-opacity:1; 
stroke-linecap:round; stroke-linejoin:round;">
<path d="M65500 23060
L65730 23060
" />
<path d="M65450 23200
L65610 22700
L65780 23200
" />
<path d="M65400 22610
L65830 22610
" />
</g>
<g style="fill:#A00000; fill-opacity:0.0; 
stroke:#A00000; stroke-width:60; stroke-opacity:1; 
stroke-linecap:round; stroke-linejoin:round;">
<path d="M63080 22590
L63150 22610
L63170 22640
L63190 22690
L63190 22760
L63170 22800
L63150 22830
L63100 22850
L62910 22850
L62910 22350
L63080 22350
L63120 22380
L63150 22400
L63170 22450
L63170 22500
L63150 22540
L63120 22570
L63080 22590
L62910 22590
" />
<path d="M63650 22850
L63410 22850
L63410 22350
" />
<path d="M63810 22350
L63810 22760
L63830 22800
L63860 22830
L63900 22850
L64000 22850
L64050 22830
L64070 22800
L64090 22760
L64090 22350
" />
</g>
<g style="fill:#00A0A0; fill-opacity:0.0; 
stroke:#00A0A0; stroke-width:60; stroke-opacity:1; 
stroke-linecap:round; stroke-linejoin:round;">
<path d="M68010 20710
L68010 20110
L68210 20540
L68410 20110
L68410 20710
" />
<path d="M69020 20710
L68670 20710
" />
<path d="M68850 20710
L68850 20110
L68790 20200
L68730 20260
L68670 20280
" />
<path d="M61290 27900
L61380 27930
L61410 27960
L61440 28010
L61440 28100
L61410 28160
L61380 28180
L61320 28210
L61090 28210
L61090 27610
L61290 27610
L61350 27640
L61380 27670
L61410 27730
L61410 27780
L61380 27840
L61350 27870
L61290 27900
L61090 27900
" />
<path d="M61690 28210
L61690 27610
" />
<path d="M61980 28210
L61980 27610
L62210 27610
L62270 27640
L62300 27670
L62330 27730
L62330 27810
L62300 27870
L62270 27900
L62210 27930
L61980 27930
" />
<path d="M62700 27610
L62810 27610
L62870 27640
L62930 27700
L62950 27810
L62950 28010
L62930 28130
L62870 28180
L62810 28210
L62700 28210
L62640 28180
L62580 28130
L62550 28010
L62550 27810
L62580 27700
L62640 27640
L62700 27610
" />
<path d="M63500 28210
L63210 28210
L63210 27610
" />
<path d="M63670 28040
L63960 28040
" />
<path d="M63620 28210
L63820 27610
L64020 28210
" />
<path d="M64560 28210
L64360 27930
" />
<path d="M64210 28210
L64210 27610
L64440 27610
L64500 27640
L64530 27670
L64560 27730
L64560 27810
L64530 27870
L64500 27900
L64440 27930
L64210 27930
" />
<path d="M64670 28270
L65130 28270
" />
<path d="M65240 28180
L65330 28210
L65470 28210
L65530 28180
L65560 28160
L65590 28100
L65590 28040
L65560 27980
L65530 27960
L65470 27930
L65360 27900
L65300 27870
L65270 27840
L65240 27780
L65240 27730
L65270 27670
L65300 27640
L65360 27610
L65500 27610
L65590 27640
" />
<path d="M65760 27610
L66100 27610
" />
<path d="M65930 28210
L65930 27610
" />
<path d="M66300 27900
L66500 27900
" />
<path d="M66590 28210
L66300 28210
L66300 27610
L66590 27610
" />
<path d="M66840 28210
L66840 27610
L67070 27610
L67130 27640
L67160 27670
L67190 27730
L67190 27810
L67160 27870
L67130 27900
L67070 27930
L66840 27930
" />
<path d="M67440 28210
L67440 27610
L67670 27610
L67730 27640
L67760 27670
L67790 27730
L67790 27810
L67760 27870
L67730 27900
L67670 27930
L67440 27930
" />
<path d="M68040 27900
L68240 27900
" />
<path d="M68330 28210
L68040 28210
L68040 27610
L68330 27610
" />
<path d="M68930 28210
L68730 27930
" />
<path d="M68580 28210
L68580 27610
L68810 27610
L68870 27640
L68900 27670
L68930 27730
L68930 27810
L68900 27870
L68870 27900
L68810 27930
L68580 27930
" />
</g>
<g style="fill:#00A0A0; fill-opacity:0.0; 
stroke:#00A0A0; stroke-width:0; stroke-opacity:1; 
stroke-linecap:round; stroke-linejoin:round;">
</g>
<g style="fill:#A00000; fill-opacity:0.0; 
stroke:#A00000; stroke-width:60; stroke-opacity:1; 
stroke-linecap:round; stroke-linejoin:round;">
<circle cx="9500" cy="11400" r="200" /> 
<polyline fill="none;"
points="9500,12000
9500,11600
9500,11600
" /> 
</g>
<g style="fill:#00A0A0; fill-opacity:0.0; 
stroke:#00A0A0; stroke-width:50; stroke-opacity:1; 
stroke-linecap:round; stroke-linejoin:round;">
<path d="M8900 10890
L9130 10890
" />
<path d="M9020 11000
L9020 10770
" />
<path d="M9240 10700
L9430 10700
L9330 10820
L9370 10820
L9400 10830
L9410 10840
L9430 10870
L9430 10940
L9410 10970
L9400 10990
L9370 11000
L9290 11000
L9260 10990
L9240 10970
" />
<path d="M9560 10970
L9580 10990
L9560 11000
L9550 10990
L9560 10970
L9560 11000
" />
<path d="M9670 10700
L9860 10700
L9760 10820
L9800 10820
L9830 10830
L9840 10840
L9860 10870
L9860 10940
L9840 10970
L9830 10990
L9800 11000
L9720 11000
L9690 10990
L9670 10970
" />
<path d="M9950 10700
L10050 11000
L10150 10700
" />
</g>
<g style="fill:#00A0A0; fill-opacity:0.0; 
stroke:#00A0A0; stroke-width:0; stroke-opacity:1; 
stroke-linecap:round; stroke-linejoin:round;">
</g>
<g style="fill:#A00000; fill-opacity:0.0; 
stroke:#A00000; stroke-width:60; stroke-opacity:1; 
stroke-linecap:round; stroke-linejoin:round;">
<circle cx="60500" cy="8900" r="200" /> 
<polyline fill="none;"
points="60500,9500
60500,9100
60500,9100
" /> 
</g>
<g style="fill:#00A0A0; fill-opacity:0.0; 
stroke:#00A0A0; stroke-width:50; stroke-opacity:1; 
stroke-linecap:round; stroke-linejoin:round;">
<path d="M59970 8490
L60200 8490
" />
<path d="M60090 8600
L60090 8370
" />
<path d="M60500 8600
L60330 8600
" />
<path d="M60410 8600
L60410 8300
L60380 8340
L60360 8370
L60330 8390
" />
<path d="M60620 8330
L60630 8320
L60660 8300
L60730 8300
L60760 8320
L60770 8330
L60790 8360
L60790 8390
L60770 8430
L60600 8600
L60790 8600
" />
<path d="M60880 8300
L60980 8600
L61080 8300
" />
</g>
<g style="fill:#00A0A0; fill-opacity:0.0; 
stroke:#00A0A0; stroke-width:60; stroke-opacity:1; 
stroke-linecap:round; stroke-linejoin:round;">
</g>
<g style="fill:#00A000; fill-opacity:0.0; 
stroke:#00A000; stroke-width:60; stroke-opacity:1; 
stroke-linecap:round; stroke-linejoin:round;">
<path d="M9500 12000
L9500 13000
" />
<path d="M9500 13000
L11000 13000
" />
<path d="M54000 10500
L62500 10500
" />
</g>
<g style="fill:#00A000; fill-opacity:0.0; 
stroke:#00A000; stroke-width:0; stroke-opacity:1; 
stroke-linecap:round; stroke-linejoin:round;">
</g>
<g style="fill:#A00000; fill-opacity:0.0; 
stroke:#A00000; stroke-width:60; stroke-opacity:1; 
stroke-linecap:round; stroke-linejoin:round;">
<polyline fill="none;"
points="9000,18000
9500,18500
10000,18000
9000,18000
" /> 
</g>
<g style="fill:#00A000; fill-opacity:0.0; 
stroke:#00A000; stroke-width:60; stroke-opacity:1; 
stroke-linecap:round; stroke-linejoin:round;">
<path d="M9500 18000
L9500 17000
" />
<path d="M9500 17000
L11000 17000
" />
</g>
<g style="fill:#00A000; fill-opacity:0.0; 
stroke:#00A000; stroke-width:0; stroke-opacity:1; 
stroke-linecap:round; stroke-linejoin:round;">
</g>
<g style="fill:#FFFF80; fill-opacity:0.6; 
stroke:#FFFF80; stroke-width:0; stroke-opacity:1; 
stroke-linecap:round; stroke-linejoin:round;">
<rect x="39000" y="14000" width="8500" height="9000" rx="0" />
</g>
<g style="fill:#A00000; fill-opacity:0.0; 
stroke:#A00000; stroke-width:60; stroke-opacity:1; 
stroke-linecap:round; stroke-linejoin:round;">
<rect x="39000" y="14000" width="8500" height="9000" rx="0" />
<path d="M47500 19000
L50500 19000
" />
</g>
<g style="fill:#00A0A0; fill-opacity:0.0; 
stroke:#00A0A0; stroke-width:60; stroke-opacity:1; 
stroke-linecap:round; stroke-linejoin:round;">
<path d="M46290 19060
L46520 19060
" />
<path d="M46240 19200
L46400 18700
L46570 19200
" />
<path d="M47000 19200
L46720 19200
" />
<path d="M46860 19200
L46860 18700
L46810 18770
L46760 18820
L46720 18850
" />
</g>
<g style="fill:#A00000; fill-opacity:0.0; 
stroke:#A00000; stroke-width:60; stroke-opacity:1; 
stroke-linecap:round; stroke-linejoin:round;">
<path d="M47500 20000
L50500 20000
" />
</g>
<g style="fill:#00A0A0; fill-opacity:0.0; 
stroke:#00A0A0; stroke-width:60; stroke-opacity:1; 
stroke-linecap:round; stroke-linejoin:round;">
<path d="M46290 20060
L46520 20060
" />
<path d="M46240 20200
L46400 19700
L46570 20200
" />
<path d="M46720 19750
L46740 19730
L46790 19700
L46910 19700
L46950 19730
L46980 19750
L47000 19800
L47000 19850
L46980 19920
L46690 20200
L47000 20200
" />
</g>
<g style="fill:#A00000; fill-opacity:0.0; 
stroke:#A00000; stroke-width:60; stroke-opacity:1; 
stroke-linecap:round; stroke-linejoin:round;">
<path d="M47500 18000
L50500 18000
" />
</g>
<g style="fill:#00A0A0; fill-opacity:0.0; 
stroke:#00A0A0; stroke-width:60; stroke-opacity:1; 
stroke-linecap:round; stroke-linejoin:round;">
<path d="M46410 17940
L46480 17960
L46500 17990
L46520 18040
L46520 18110
L46500 18150
L46480 18180
L46430 18200
L46240 18200
L46240 17700
L46410 17700
L46450 17730
L46480 17750
L46500 17800
L46500 17850
L46480 17890
L46450 17920
L46410 17940
L46240 17940
" />
<path d="M47000 18200
L46720 18200
" />
<path d="M46860 18200
L46860 17700
L46810 17770
L46760 17820
L46720 17850
" />
</g>
<g style="fill:#A00000; fill-opacity:0.0; 
stroke:#A00000; stroke-width:60; stroke-opacity:1; 
stroke-linecap:round; stroke-linejoin:round;">
<path d="M47500 17000
L50500 17000
" />
</g>
<g style="fill:#00A0A0; fill-opacity:0.0; 
stroke:#00A0A0; stroke-width:60; stroke-opacity:1; 
stroke-linecap:round; stroke-linejoin:round;">
<path d="M46410 16940
L46480 16960
L46500 16990
L46520 17040
L46520 17110
L46500 17150
L46480 17180
L46430 17200
L46240 17200
L46240 16700
L46410 16700
L46450 16730
L46480 16750
L46500 16800
L46500 16850
L46480 16890
L46450 16920
L46410 16940
L46240 16940
" />
<path d="M46720 16750
L46740 16730
L46790 16700
L46910 16700
L46950 16730
L46980 16750
L47000 16800
L47000 16850
L46980 16920
L46690 17200
L47000 17200
" />
</g>
<g style="fill:#A00000; fill-opacity:0.0; 
stroke:#A00000; stroke-width:60; stroke-opacity:1; 
stroke-linecap:round; stroke-linejoin:round;">
<path d="M39000 22000
L36000 22000
" />
</g>
<g style="fill:#00A0A0; fill-opacity:0.0; 
stroke:#00A0A0; stroke-width:60; stroke-opacity:1; 
stroke-linecap:round; stroke-linejoin:round;">
<path d="M39520 22200
L39520 21700
L39640 21700
L39710 21730
L39760 21770
L39780 21820
L39800 21920
L39800 21990
L39780 22080
L39760 22130
L39710 22180
L39640 22200
L39520 22200
" />
<path d="M40020 22200
L40020 21700
" />
<path d="M40540 22200
L40380 21960
" />
<path d="M40260 22200
L40260 21700
L40450 21700
L40500 21730
L40520 21750
L40540 21800
L40540 21870
L40520 21920
L40500 21940
L40450 21960
L40260 21960
" />
</g>
<g style="fill:#A00000; fill-opacity:0.0; 
stroke:#A00000; stroke-width:60; stroke-opacity:1; 
stroke-linecap:round; stroke-linejoin:round;">
<path d="M47500 22000
L50500 22000
" />
</g>
<g style="fill:#00A0A0; fill-opacity:0.0; 
stroke:#00A0A0; stroke-width:60; stroke-opacity:1; 
stroke-linecap:round; stroke-linejoin:round;">
<path d="M45960 21730
L45910 21700
L45840 21700
L45770 21730
L45720 21770
L45700 21820
L45680 21920
L45680 21990
L45700 22080
L45720 22130
L45770 22180
L45840 22200
L45890 22200
L45960 22180
L45980 22150
L45980 21990
L45890 21990
" />
<path d="M46200 22200
L46200 21700
L46480 22200
L46480 21700
" />
<path d="M46720 22200
L46720 21700
L46840 21700
L46910 21730
L46960 21770
L46980 21820
L47000 21920
L47000 21990
L46980 22080
L46960 22130
L46910 22180
L46840 22200
L46720 22200
" />
</g>
<g style="fill:#A00000; fill-opacity:0.0; 
stroke:#A00000; stroke-width:60; stroke-opacity:1; 
stroke-linecap:round; stroke-linejoin:round;">
<path d="M47500 16000
L50500 16000
" />
</g>
<g style="fill:#00A0A0; fill-opacity:0.0; 
stroke:#00A0A0; stroke-width:60; stroke-opacity:1; 
stroke-linecap:round; stroke-linejoin:round;">
<path d="M45960 15730
L45910 15700
L45840 15700
L45770 15730
L45720 15770
L45700 15820
L45680 15920
L45680 15990
L45700 16080
L45720 16130
L45770 16180
L45840 16200
L45890 16200
L45960 16180
L45980 16150
L45980 15990
L45890 15990
" />
<path d="M46200 16200
L46200 15700
L46480 16200
L46480 15700
" />
<path d="M46720 16200
L46720 15700
L46840 15700
L46910 15730
L46960 15770
L46980 15820
L47000 15920
L47000 15990
L46980 16080
L46960 16130
L46910 16180
L46840 16200
L46720 16200
" />
</g>
<g style="fill:#A00000; fill-opacity:0.0; 
stroke:#A00000; stroke-width:60; stroke-opacity:1; 
stroke-linecap:round; stroke-linejoin:round;">
<path d="M39000 16000
L36000 16000
" />
</g>
<g style="fill:#00A0A0; fill-opacity:0.0; 
stroke:#00A0A0; stroke-width:60; stroke-opacity:1; 
stroke-linecap:round; stroke-linejoin:round;">
<path d="M39520 16200
L39520 15700
L39690 16060
L39850 15700
L39850 16200
" />
<path d="M40180 15700
L40230 15700
L40280 15730
L40300 15750
L40330 15800
L40350 15890
L40350 16010
L40330 16110
L40300 16150
L40280 16180
L40230 16200
L40180 16200
L40140 16180
L40110 16150
L40090 16110
L40070 16010
L40070 15890
L40090 15800
L40110 15750
L40140 15730
L40180 15700
" />
</g>
<g style="fill:#A00000; fill-opacity:0.0; 
stroke:#A00000; stroke-width:60; stroke-opacity:1; 
stroke-linecap:round; stroke-linejoin:round;">
<path d="M39000 17000
L36000 17000
" />
</g>
<g style="fill:#00A0A0; fill-opacity:0.0; 
stroke:#00A0A0; stroke-width:60; stroke-opacity:1; 
stroke-linecap:round; stroke-linejoin:round;">
<path d="M39520 17200
L39520 16700
L39690 17060
L39850 16700
L39850 17200
" />
<path d="M40350 17200
L40070 17200
" />
<path d="M40210 17200
L40210 16700
L40160 16770
L40110 16820
L40070 16850
" />
</g>
<g style="fill:#A00000; fill-opacity:0.0; 
stroke:#A00000; stroke-width:60; stroke-opacity:1; 
stroke-linecap:round; stroke-linejoin:round;">
<path d="M39000 18000
L36000 18000
" />
</g>
<g style="fill:#00A0A0; fill-opacity:0.0; 
stroke:#00A0A0; stroke-width:60; stroke-opacity:1; 
stroke-linecap:round; stroke-linejoin:round;">
<path d="M39520 18200
L39520 17700
L39690 18060
L39850 17700
L39850 18200
" />
<path d="M40070 17750
L40090 17730
L40140 17700
L40260 17700
L40300 17730
L40330 17750
L40350 17800
L40350 17850
L40330 17920
L40040 18200
L40350 18200
" />
</g>
<g style="fill:#A00000; fill-opacity:0.0; 
stroke:#A00000; stroke-width:60; stroke-opacity:1; 
stroke-linecap:round; stroke-linejoin:round;">
<path d="M39000 21000
L36000 21000
" />
</g>
<g style="fill:#00A0A0; fill-opacity:0.0; 
stroke:#00A0A0; stroke-width:60; stroke-opacity:1; 
stroke-linecap:round; stroke-linejoin:round;">
<path d="M39500 21180
L39570 21200
L39690 21200
L39730 21180
L39760 21150
L39780 21110
L39780 21060
L39760 21010
L39730 20990
L39690 20960
L39590 20940
L39540 20920
L39520 20890
L39500 20850
L39500 20800
L39520 20750
L39540 20730
L39590 20700
L39710 20700
L39780 20730
" />
<path d="M39930 20700
L40210 20700
" />
<path d="M40070 21200
L40070 20700
" />
<path d="M40380 20940
L40550 20940
" />
<path d="M40620 21200
L40380 21200
L40380 20700
L40620 20700
" />
<path d="M40830 21200
L40830 20700
L41020 20700
L41070 20730
L41090 20750
L41110 20800
L41110 20870
L41090 20920
L41070 20940
L41020 20960
L40830 20960
" />
</g>
<g style="fill:#A00000; fill-opacity:0.0; 
stroke:#A00000; stroke-width:60; stroke-opacity:1; 
stroke-linecap:round; stroke-linejoin:round;">
<path d="M47500 15000
L50500 15000
" />
</g>
<g style="fill:#00A0A0; fill-opacity:0.0; 
stroke:#00A0A0; stroke-width:60; stroke-opacity:1; 
stroke-linecap:round; stroke-linejoin:round;">
<path d="M45250 14700
L45410 15200
L45580 14700
" />
<path d="M45750 15200
L45750 14700
L45920 15060
L46080 14700
L46080 15200
" />
<path d="M46410 14700
L46510 14700
L46560 14730
L46600 14770
L46630 14870
L46630 15040
L46600 15130
L46560 15180
L46510 15200
L46410 15200
L46370 15180
L46320 15130
L46300 15040
L46300 14870
L46320 14770
L46370 14730
L46410 14700
" />
<path d="M46770 14700
L47050 14700
" />
<path d="M46910 15200
L46910 14700
" />
</g>
<g style="fill:#A00000; fill-opacity:0.0; 
stroke:#A00000; stroke-width:60; stroke-opacity:1; 
stroke-linecap:round; stroke-linejoin:round;">
<path d="M39000 15000
L36000 15000
" />
</g>
<g style="fill:#00A0A0; fill-opacity:0.0; 
stroke:#00A0A0; stroke-width:60; stroke-opacity:1; 
stroke-linecap:round; stroke-linejoin:round;">
<path d="M39520 14940
L39690 14940
" />
<path d="M39760 15200
L39520 15200
L39520 14700
L39760 14700
" />
<path d="M39970 15200
L39970 14700
L40250 15200
L40250 14700
" />
<path d="M40470 15060
L40700 15060
" />
<path d="M40420 15200
L40580 14700
L40750 15200
" />
<path d="M41090 14940
L41160 14960
L41180 14990
L41200 15040
L41200 15110
L41180 15150
L41160 15180
L41110 15200
L40920 15200
L40920 14700
L41090 14700
L41130 14730
L41160 14750
L41180 14800
L41180 14850
L41160 14890
L41130 14920
L41090 14940
L40920 14940
" />
<path d="M41660 15200
L41420 15200
L41420 14700
" />
<path d="M41820 14940
L41990 14940
" />
<path d="M42060 15200
L41820 15200
L41820 14700
L42060 14700
" />
<path d="M39400 14610
L42150 14610
" />
</g>
<g style="fill:#A00000; fill-opacity:0.0; 
stroke:#A00000; stroke-width:60; stroke-opacity:1; 
stroke-linecap:round; stroke-linejoin:round;">
<path d="M47500 21000
L50500 21000
" />
</g>
<g style="fill:#00A0A0; fill-opacity:0.0; 
stroke:#00A0A0; stroke-width:60; stroke-opacity:1; 
stroke-linecap:round; stroke-linejoin:round;">
<path d="M45230 20940
L45060 20940
" />
<path d="M45060 21200
L45060 20700
L45300 20700
" />
<path d="M45470 21060
L45700 21060
" />
<path d="M45420 21200
L45580 20700
L45750 21200
" />
<path d="M45920 20700
L45920 21110
L45940 21150
L45970 21180
L46010 21200
L46110 21200
L46160 21180
L46180 21150
L46200 21110
L46200 20700
" />
<path d="M46680 21200
L46440 21200
L46440 20700
" />
<path d="M46770 20700
L47050 20700
" />
<path d="M46910 21200
L46910 20700
" />
<path d="M44940 20610
L47100 20610
" />
</g>
<g style="fill:#A00000; fill-opacity:0.0; 
stroke:#A00000; stroke-width:60; stroke-opacity:1; 
stroke-linecap:round; stroke-linejoin:round;">
<path d="M39000 19000
L36000 19000
" />
</g>
<g style="fill:#00A0A0; fill-opacity:0.0; 
stroke:#00A0A0; stroke-width:60; stroke-opacity:1; 
stroke-linecap:round; stroke-linejoin:round;">
<path d="M39800 19200
L39640 18960
" />
<path d="M39520 19200
L39520 18700
L39710 18700
L39760 18730
L39780 18750
L39800 18800
L39800 18870
L39780 18920
L39760 18940
L39710 18960
L39520 18960
" />
<path d="M40020 18940
L40190 18940
" />
<path d="M40260 19200
L40020 19200
L40020 18700
L40260 18700
" />
<path d="M40450 19180
L40520 19200
L40640 19200
L40680 19180
L40710 19150
L40730 19110
L40730 19060
L40710 19010
L40680 18990
L40640 18960
L40540 18940
L40490 18920
L40470 18890
L40450 18850
L40450 18800
L40470 18750
L40490 18730
L40540 18700
L40660 18700
L40730 18730
" />
<path d="M40950 18940
L41120 18940
" />
<path d="M41190 19200
L40950 19200
L40950 18700
L41190 18700
" />
<path d="M41330 18700
L41610 18700
" />
<path d="M41470 19200
L41470 18700
" />
<path d="M39400 18610
L41660 18610
" />
</g>
<g style="fill:#A00000; fill-opacity:0.0; 
stroke:#A00000; stroke-width:60; stroke-opacity:1; 
stroke-linecap:round; stroke-linejoin:round;">
<path d="M39000 20000
L36000 20000
" />
</g>
<g style="fill:#00A0A0; fill-opacity:0.0; 
stroke:#00A0A0; stroke-width:60; stroke-opacity:1; 
stroke-linecap:round; stroke-linejoin:round;">
<path d="M39500 20180
L39570 20200
L39690 20200
L39730 20180
L39760 20150
L39780 20110
L39780 20060
L39760 20010
L39730 19990
L39690 19960
L39590 19940
L39540 19920
L39520 19890
L39500 19850
L39500 19800
L39520 19750
L39540 19730
L39590 19700
L39710 19700
L39780 19730
" />
<path d="M40240 20200
L40000 20200
L40000 19700
" />
<path d="M40400 19940
L40570 19940
" />
<path d="M40640 20200
L40400 20200
L40400 19700
L40640 19700
" />
<path d="M40850 19940
L41020 19940
" />
<path d="M41090 20200
L40850 20200
L40850 19700
L41090 19700
" />
<path d="M41300 20200
L41300 19700
L41490 19700
L41540 19730
L41560 19750
L41580 19800
L41580 19870
L41560 19920
L41540 19940
L41490 19960
L41300 19960
" />
<path d="M39400 19610
L41680 19610
" />
</g>
<g style="fill:#A00000; fill-opacity:0.0; 
stroke:#A00000; stroke-width:60; stroke-opacity:1; 
stroke-linecap:round; stroke-linejoin:round;">
</g>
<g style="fill:#00A0A0; fill-opacity:0.0; 
stroke:#00A0A0; stroke-width:60; stroke-opacity:1; 
stroke-linecap:round; stroke-linejoin:round;">
<path d="M39540 13110
L39540 13600
L39570 13660
L39600 13680
L39660 13710
L39770 13710
L39830 13680
L39860 13660
L39890 13600
L39890 13110
" />
<path d="M40490 13710
L40140 13710
" />
<path d="M40320 13710
L40320 13110
L40260 13200
L40200 13260
L40140 13280
" />
<path d="M39050 24210
L39050 23610
L39200 23610
L39280 23640
L39340 23700
L39370 23760
L39400 23870
L39400 23960
L39370 24070
L39340 24130
L39280 24180
L39200 24210
L39050 24210
" />
<path d="M40000 24210
L39800 23930
" />
<path d="M39650 24210
L39650 23610
L39880 23610
L39940 23640
L39970 23670
L40000 23730
L40000 23810
L39970 23870
L39940 23900
L39880 23930
L39650 23930
" />
<path d="M40170 23610
L40370 24210
L40570 23610
" />
<path d="M40850 23870
L40790 23840
L40760 23810
L40730 23760
L40730 23730
L40760 23670
L40790 23640
L40850 23610
L40960 23610
L41020 23640
L41050 23670
L41080 23730
L41080 23760
L41050 23810
L41020 23840
L40960 23870
L40850 23870
L40790 23900
L40760 23930
L40730 23980
L40730 24100
L40760 24160
L40790 24180
L40850 24210
L40960 24210
L41020 24180
L41050 24160
L41080 24100
L41080 23980
L41050 23930
L41020 23900
L40960 23870
" />
<path d="M41420 23870
L41360 23840
L41330 23810
L41300 23760
L41300 23730
L41330 23670
L41360 23640
L41420 23610
L41530 23610
L41590 23640
L41620 23670
L41650 23730
L41650 23760
L41620 23810
L41590 23840
L41530 23870
L41420 23870
L41360 23900
L41330 23930
L41300 23980
L41300 24100
L41330 24160
L41360 24180
L41420 24210
L41530 24210
L41590 24180
L41620 24160
L41650 24100
L41650 23980
L41620 23930
L41590 23900
L41530 23870
" />
<path d="M41870 23670
L41900 23640
L41960 23610
L42100 23610
L42160 23640
L42190 23670
L42220 23730
L42220 23780
L42190 23870
L41850 24210
L42220 24210
" />
<path d="M42760 23610
L42470 23610
L42440 23900
L42470 23870
L42530 23840
L42670 23840
L42730 23870
L42760 23900
L42790 23960
L42790 24100
L42760 24160
L42730 24180
L42670 24210
L42530 24210
L42470 24180
L42440 24160
" />
<path d="M42900 24270
L43360 24270
" />
<path d="M43850 24160
L43820 24180
L43730 24210
L43670 24210
L43590 24180
L43530 24130
L43500 24070
L43470 23960
L43470 23870
L43500 23760
L43530 23700
L43590 23640
L43670 23610
L43730 23610
L43820 23640
L43850 23670
" />
<path d="M44070 24040
L44360 24040
" />
<path d="M44020 24210
L44220 23610
L44420 24210
" />
<path d="M44960 24210
L44760 23930
" />
<path d="M44610 24210
L44610 23610
L44840 23610
L44900 23640
L44930 23670
L44960 23730
L44960 23810
L44930 23870
L44900 23900
L44840 23930
L44610 23930
" />
<path d="M45560 24210
L45360 23930
" />
<path d="M45210 24210
L45210 23610
L45440 23610
L45500 23640
L45530 23670
L45560 23730
L45560 23810
L45530 23870
L45500 23900
L45440 23930
L45210 23930
" />
<path d="M45810 24210
L45810 23610
" />
<path d="M46100 23900
L46300 23900
" />
<path d="M46390 24210
L46100 24210
L46100 23610
L46390 23610
" />
<path d="M46990 24210
L46790 23930
" />
<path d="M46640 24210
L46640 23610
L46870 23610
L46930 23640
L46960 23670
L46990 23730
L46990 23810
L46960 23870
L46930 23900
L46870 23930
L46640 23930
" />
</g>
<g style="fill:#00A0A0; fill-opacity:0.0; 
stroke:#00A0A0; stroke-width:0; stroke-opacity:1; 
stroke-linecap:round; stroke-linejoin:round;">
</g>
<g style="fill:#A00000; fill-opacity:0.0; 
stroke:#A00000; stroke-width:60; stroke-opacity:1; 
stroke-linecap:round; stroke-linejoin:round;">
<path d="M56700 11520
L57310 11520
" />
<path d="M57010 11820
L57010 11210
" />
</g>
<g style="fill:#A00000; fill-opacity:0.0; 
stroke:#A00000; stroke-width:150; stroke-opacity:1; 
stroke-linecap:round; stroke-linejoin:round;">
<path d="M58501.3 13004.2 A1800 1800 0.0 0 0 56506.5 12999 " />
<polyline fill="none;"
points="56500,12000
58500,12000
58000,12000
58000,12000
" /> 
</g>
<g style="fill:#A00000; fill-opacity:0.0; 
stroke:#A00000; stroke-width:60; stroke-opacity:1; 
stroke-linecap:round; stroke-linejoin:round;">
<path d="M57500 12000
L57500 10500
" />
<path d="M57500 12700
L57500 14500
" />
</g>
<g style="fill:#00A0A0; fill-opacity:0.0; 
stroke:#00A0A0; stroke-width:60; stroke-opacity:1; 
stroke-linecap:round; stroke-linejoin:round;">
<path d="M58400 11620
L58380 11650
L58310 11670
L58260 11670
L58190 11650
L58140 11600
L58120 11550
L58100 11460
L58100 11390
L58120 11290
L58140 11240
L58190 11200
L58260 11170
L58310 11170
L58380 11200
L58400 11220
" />
<path d="M58880 11670
L58600 11670
" />
<path d="M58740 11670
L58740 11170
L58690 11240
L58640 11290
L58600 11320
" />
<path d="M59380 12170
L59100 12170
" />
<path d="M59240 12170
L59240 11670
L59190 11740
L59140 11790
L59100 11820
" />
<path d="M59690 11670
L59740 11670
L59790 11700
L59810 11720
L59840 11770
L59860 11860
L59860 11980
L59840 12080
L59810 12120
L59790 12150
L59740 12170
L59690 12170
L59650 12150
L59620 12120
L59600 12080
L59580 11980
L59580 11860
L59600 11770
L59620 11720
L59650 11700
L59690 11670
" />
<path d="M60170 11670
L60220 11670
L60270 11700
L60290 11720
L60320 11770
L60340 11860
L60340 11980
L60320 12080
L60290 12120
L60270 12150
L60220 12170
L60170 12170
L60130 12150
L60100 12120
L60080 12080
L60060 11980
L60060 11860
L60080 11770
L60100 11720
L60130 11700
L60170 11670
" />
<path d="M60770 11840
L60770 12170
" />
<path d="M60560 11840
L60560 12100
L60580 12150
L60630 12170
L60700 12170
L60750 12150
L60770 12120
" />
<path d="M61180 11910
L61010 11910
" />
<path d="M61010 12170
L61010 11670
L61250 11670
" />
</g>
<g style="fill:#A000A0; fill-opacity:0.0; 
stroke:#A000A0; stroke-width:60; stroke-opacity:1; 
stroke-linecap:round; stroke-linejoin:round;">
<path d="M59410 12720
L59430 12700
L59480 12670
L59600 12670
L59640 12700
L59670 12720
L59690 12770
L59690 12820
L59670 12890
L59380 13170
L59690 13170
" />
<path d="M60150 12670
L59910 12670
L59890 12910
L59910 12890
L59960 12860
L60080 12860
L60120 12890
L60150 12910
L60170 12960
L60170 13080
L60150 13120
L60120 13150
L60080 13170
L59960 13170
L59910 13150
L59890 13120
" />
<path d="M60320 12670
L60480 13170
L60650 12670
" />
</g>
<g style="fill:#A000A0; fill-opacity:0.0; 
stroke:#A000A0; stroke-width:0; stroke-opacity:1; 
stroke-linecap:round; stroke-linejoin:round;">
</g>
<g style="fill:#00A000; fill-opacity:1.0; 
stroke:#00A000; stroke-width:100; stroke-opacity:1; 
stroke-linecap:round; stroke-linejoin:round;">
<circle cx="57500" cy="10500" r="160" /> 
</g>
<g style="fill:#00A000; fill-opacity:1.0; 
stroke:#00A000; stroke-width:0; stroke-opacity:1; 
stroke-linecap:round; stroke-linejoin:round;">
</g>
<g style="fill:#00A000; fill-opacity:1.0; 
stroke:#00A000; stroke-width:100; stroke-opacity:1; 
stroke-linecap:round; stroke-linejoin:round;">
<circle cx="57500" cy="14500" r="160" /> 
</g>
<g style="fill:#00A000; fill-opacity:1.0; 
stroke:#00A000; stroke-width:60; stroke-opacity:1; 
stroke-linecap:round; stroke-linejoin:round;">
<path d="M55000 14500
L62500 14500
" />
<path d="M60500 14500
L60500 15500
" />
</g>
<g style="fill:#00A000; fill-opacity:1.0; 
stroke:#00A000; stroke-width:0; stroke-opacity:1; 
stroke-linecap:round; stroke-linejoin:round;">
</g>
<g style="fill:#A00000; fill-opacity:0.0; 
stroke:#A00000; stroke-width:60; stroke-opacity:1; 
stroke-linecap:round; stroke-linejoin:round;">
<polyline fill="none;"
points="60000,15500
60500,16000
61000,15500
60000,15500
" /> 
</g>
<g style="fill:#00A000; fill-opacity:0.0; 
stroke:#00A000; stroke-width:60; stroke-opacity:1; 
stroke-linecap:round; stroke-linejoin:round;">
<path d="M50500 15000
L54000 15000
" />
<path d="M54000 15000
L54000 10500
" />
<path d="M55000 14500
L55000 16000
" />
<path d="M55000 16000
L50500 16000
" />
<path d="M60500 9500
L60500 10500
" />
</g>
<g style="fill:#00A000; fill-opacity:0.0; 
stroke:#00A000; stroke-width:0; stroke-opacity:1; 
stroke-linecap:round; stroke-linejoin:round;">
</g>
<g style="fill:#00A000; fill-opacity:1.0; 
stroke:#00A000; stroke-width:100; stroke-opacity:1; 
stroke-linecap:round; stroke-linejoin:round;">
<circle cx="60500" cy="10500" r="160" /> 
</g>
<g style="fill:#00A000; fill-opacity:1.0; 
stroke:#00A000; stroke-width:0; stroke-opacity:1; 
stroke-linecap:round; stroke-linejoin:round;">
</g>
<g style="fill:#00A000; fill-opacity:1.0; 
stroke:#00A000; stroke-width:100; stroke-opacity:1; 
stroke-linecap:round; stroke-linejoin:round;">
<circle cx="60500" cy="14500" r="160" /> 
</g>
<g style="fill:#00A000; fill-opacity:1.0; 
stroke:#00A000; stroke-width:0; stroke-opacity:1; 
stroke-linecap:round; stroke-linejoin:round;">
</g>
<g style="fill:#A00000; fill-opacity:0.0; 
stroke:#A00000; stroke-width:60; stroke-opacity:1; 
stroke-linecap:round; stroke-linejoin:round;">
<circle cx="34500" cy="17400" r="200" /> 
<polyline fill="none;"
points="34500,18000
34500,17600
34500,17600
" /> 
</g>
<g style="fill:#00A0A0; fill-opacity:0.0; 
stroke:#00A0A0; stroke-width:50; stroke-opacity:1; 
stroke-linecap:round; stroke-linejoin:round;">
<path d="M33900 16890
L34130 16890
" />
<path d="M34020 17000
L34020 16770
" />
<path d="M34240 16700
L34430 16700
L34330 16820
L34370 16820
L34400 16830
L34410 16840
L34430 16870
L34430 16940
L34410 16970
L34400 16990
L34370 17000
L34290 17000
L34260 16990
L34240 16970
" />
<path d="M34560 16970
L34580 16990
L34560 17000
L34550 16990
L34560 16970
L34560 17000
" />
<path d="M34670 16700
L34860 16700
L34760 16820
L34800 16820
L34830 16830
L34840 16840
L34860 16870
L34860 16940
L34840 16970
L34830 16990
L34800 17000
L34720 17000
L34690 16990
L34670 16970
" />
<path d="M34950 16700
L35050 17000
L35150 16700
" />
</g>
<g style="fill:#00A0A0; fill-opacity:0.0; 
stroke:#00A0A0; stroke-width:60; stroke-opacity:1; 
stroke-linecap:round; stroke-linejoin:round;">
</g>
<g style="fill:#00A000; fill-opacity:0.0; 
stroke:#00A000; stroke-width:60; stroke-opacity:1; 
stroke-linecap:round; stroke-linejoin:round;">
<path d="M34500 18000
L34500 20000
" />
<path d="M34500 19000
L36000 19000
" />
<path d="M34500 20000
L36000 20000
" />
</g>
<g style="fill:#00A000; fill-opacity:0.0; 
stroke:#00A000; stroke-width:0; stroke-opacity:1; 
stroke-linecap:round; stroke-linejoin:round;">
</g>
<g style="fill:#00A000; fill-opacity:1.0; 
stroke:#00A000; stroke-width:100; stroke-opacity:1; 
stroke-linecap:round; stroke-linejoin:round;">
<circle cx="34500" cy="19000" r="160" /> 
</g>
<g style="fill:#00A000; fill-opacity:1.0; 
stroke:#00A000; stroke-width:60; stroke-opacity:1; 
stroke-linecap:round; stroke-linejoin:round;">
<path d="M30000 24000
L33500 24000
" />
<path d="M33500 24000
L33500 22000
" />
<path d="M33500 22000
L36000 22000
" />
<path d="M30000 25000
L32500 25000
" />
<path d="M32500 25000
L32500 21000
" />
<path d="M32500 21000
L36000 21000
" />
<path d="M50500 17000
L56500 17000
" />
<path d="M56500 17000
L56500 26000
" />
<path d="M56500 26000
L62000 26000
" />
<path d="M50500 18000
L57500 18000
" />
<path d="M57500 18000
L57500 25000
" />
<path d="M57500 25000
L62000 25000
" />
<path d="M50500 19000
L60000 19000
" />
<path d="M60000 19000
L60000 22000
" />
<path d="M60000 22000
L62000 22000
" />
<path d="M50500 20000
L59000 20000
" />
<path d="M59000 20000
L59000 23000
" />
<path d="M59000 23000
L62000 23000
" />
</g>
<g style="fill:#00A000; fill-opacity:1.0; 
stroke:#00A000; stroke-width:0; stroke-opacity:1; 
stroke-linecap:round; stroke-linejoin:round;">
</g>
<g style="fill:#A00000; fill-opacity:0.0; 
stroke:#A00000; stroke-width:60; stroke-opacity:1; 
stroke-linecap:round; stroke-linejoin:round;">
<polyline fill="none;"
points="51000,23000
51500,23500
52000,23000
51000,23000
" /> 
</g>
<g style="fill:#00A000; fill-opacity:0.0; 
stroke:#00A000; stroke-width:60; stroke-opacity:1; 
stroke-linecap:round; stroke-linejoin:round;">
<path d="M51500 22000
L51500 23000
" />
<path d="M50500 22000
L51500 22000
" />
</g> 
</svg>
